<svg width="140" height="54" viewBox="0 0 140 54" fill="none" xmlns="http://www.w3.org/2000/svg">
<path d="M51.0996 22.3974V41.5424C51.0996 42.9625 50.2717 43.7399 48.8466 43.7399H46.182C44.757 43.7399 43.9767 42.9625 43.9767 41.5424V40.0299C42.7824 42.6849 40.2985 44.2425 36.7609 44.2425C30.4633 44.2425 28.1651 39.2949 28.1651 33.7549V22.3974C28.1651 20.9773 28.9454 20.1998 30.3705 20.1998H33.0827C34.5078 20.1998 35.2881 20.9773 35.2881 22.3974V33.2524C35.2881 36.5499 36.5752 38.5199 39.0114 38.5199C41.4025 38.5199 43.9767 36.5949 43.9767 32.1999V22.3999C43.9767 20.9798 44.757 20.2023 46.182 20.2023H48.8466C50.2717 20.1998 51.0996 20.9773 51.0996 22.3974ZM129.028 20.1998H126.04C124.798 20.1998 123.925 20.7498 123.466 21.9848L118.593 34.7624L113.766 21.9848C113.352 20.7473 112.479 20.1998 111.192 20.1998H108.066C106.41 20.1998 105.675 21.2998 106.365 22.8099L115.098 42.1374L111.237 51.435C110.595 52.9475 111.282 54 112.938 54H115.236C116.478 54 117.306 53.495 117.811 52.305L130.727 22.8099C131.372 21.2523 130.684 20.1998 129.028 20.1998ZM102.12 43.7399C103.545 43.7399 104.373 42.9625 104.373 41.5424V30.1849C104.373 24.6424 102.074 19.6973 95.7317 19.6973C92.2392 19.6973 89.7102 21.2548 88.5611 23.9574V22.3999C88.5611 20.9798 87.7808 20.2023 86.3557 20.2023H83.6435C82.2184 20.2023 81.4381 20.9798 81.4381 22.3999V41.5449C81.4381 42.9649 82.2209 43.7425 83.6435 43.7425H89.6299C89.4066 42.7074 89.2285 41.6799 89.093 40.7574C89.0905 40.7499 89.0905 40.7424 89.0905 40.7374C88.9801 39.9774 88.8948 39.2874 88.8321 38.7199C88.6163 36.6974 88.6564 35.1374 89.5521 34.0924C89.9009 33.6849 90.3575 33.3799 90.9471 33.1599C91.0399 33.1249 91.1353 33.0924 91.2356 33.0624C90.9245 32.6749 90.6109 32.2174 90.3174 31.7174C89.808 30.8424 89.4442 29.9449 89.2912 29.1949C89.2235 28.8574 89.2084 28.5699 89.231 28.3249C89.2335 28.2974 89.231 28.2624 89.2335 28.2349C89.2786 27.9249 89.4041 27.7099 89.6048 27.5924C89.6224 27.5824 89.6424 27.5724 89.6625 27.5649C89.8808 27.4649 90.2471 27.4524 90.8141 27.8524C91.1478 28.0874 91.5041 28.4324 91.8604 28.8599C91.8955 28.6499 91.9356 28.4449 91.9833 28.2524C92.0987 27.7899 92.3095 27.1674 92.6557 26.8249C92.8213 26.6624 93.002 26.5799 93.1901 26.5799C93.3783 26.5774 93.559 26.6599 93.7245 26.8249L93.7296 26.8299C94.0733 27.1724 94.2815 27.7924 94.3944 28.2499C94.4421 28.4424 94.4823 28.6449 94.5174 28.8549C94.8737 28.4274 95.2274 28.0849 95.5636 27.8499C96.1081 27.4674 96.4694 27.4624 96.6901 27.5524C96.7203 27.5649 96.7479 27.5774 96.7729 27.5924C96.9762 27.7099 97.0991 27.9274 97.1468 28.2349C97.1794 28.4499 97.1618 28.7174 97.1142 29.0099C97.1041 29.0724 97.1016 29.1274 97.0891 29.1949C96.936 29.9474 96.5722 30.8424 96.0629 31.7174C95.7694 32.2199 95.4557 32.6799 95.1421 33.0649C95.2425 33.0949 95.3378 33.1274 95.4306 33.1624C96.0202 33.3824 96.4769 33.6899 96.8256 34.0949C96.9988 34.2949 97.1292 34.5224 97.2446 34.7624C97.7188 35.7649 97.7213 37.0899 97.5482 38.7224C97.478 39.3649 97.3776 40.1649 97.2446 41.0449C97.1142 41.8924 96.9511 42.8125 96.7504 43.745H102.12V43.7399ZM25.3977 31.9699C25.3977 38.9324 20.6633 44.245 13.9995 44.245C13.2694 44.245 12.5568 44.175 11.8719 44.0375C-0.369408 42.1024 0.0144631 24.0524 0.0144631 24.0524V24.0549C-0.070842 20.7323 0.215182 16.8548 1.03311 12.3323C1.09583 11.9823 1.16106 11.6298 1.23132 11.2723L1.23382 11.2773C1.84601 8.15478 2.86215 3.93226 4.18186 1.18475C4.8919 -0.295255 6.8765 -0.432757 7.59407 1.02225C9.5611 5.02227 12.0324 12.2148 9.98762 20.5023C11.207 19.9573 12.5694 19.6973 14.002 19.6973C20.6658 19.6948 25.3977 25.0549 25.3977 31.9699ZM18.5006 31.8149C18.5006 28.4624 16.4558 25.7049 13.0511 25.7049C10.8382 25.7049 9.15214 26.8199 8.22633 28.5499C7.72704 29.4849 7.44604 30.5949 7.43098 31.8124C7.436 32.2574 7.47865 32.6874 7.55141 33.0999C8.0507 35.9199 10.0805 37.9224 13.0511 37.9224C16.4583 37.9224 18.5006 35.2074 18.5006 31.8149ZM75.6449 43.7399C77.07 43.7399 77.898 42.9625 77.898 41.5424V30.1849C77.898 24.6424 75.5997 19.6973 69.2571 19.6973C65.7646 19.6973 63.2355 21.2548 62.0864 23.9574V22.3999C62.0864 20.9798 61.3061 20.2023 59.881 20.2023H57.1688C55.7437 20.2023 54.9634 20.9798 54.9634 22.3999V41.5449C54.9634 42.9649 55.7462 43.7425 57.1688 43.7425H63.1552C62.9319 42.7074 62.7538 41.6799 62.6183 40.7574C62.6158 40.7499 62.6158 40.7424 62.6158 40.7374C62.5054 39.9774 62.4201 39.2874 62.3574 38.7199C62.1416 36.6974 62.1818 35.1374 63.0775 34.0924C63.4262 33.6849 63.8828 33.3799 64.4725 33.1599C64.5653 33.1249 64.6606 33.0924 64.761 33.0624C64.4499 32.6749 64.1362 32.2174 63.8427 31.7174C63.3334 30.8424 62.9696 29.9449 62.8165 29.1949C62.7488 28.8574 62.7337 28.5699 62.7563 28.3249C62.7588 28.2974 62.7563 28.2624 62.7588 28.2349C62.804 27.9249 62.9294 27.7099 63.1301 27.5924C63.1477 27.5824 63.1678 27.5724 63.1879 27.5649C63.4061 27.4649 63.7724 27.4524 64.3395 27.8524C64.6732 28.0874 65.0294 28.4324 65.3857 28.8599C65.4208 28.6499 65.461 28.4449 65.5087 28.2524C65.6241 27.7899 65.8348 27.1674 66.1811 26.8249C66.3466 26.6624 66.5273 26.5799 66.7155 26.5799C66.9036 26.5774 67.0843 26.6599 67.2499 26.8249L67.2549 26.8299C67.5986 27.1724 67.8069 27.7924 67.9198 28.2499C67.9674 28.4424 68.0076 28.6449 68.0427 28.8549C68.399 28.4274 68.7528 28.0849 69.089 27.8499C69.6334 27.4674 69.9947 27.4624 70.2155 27.5524C70.2456 27.5649 70.2732 27.5774 70.2983 27.5924C70.5015 27.7099 70.6244 27.9274 70.6721 28.2349C70.7047 28.4499 70.6872 28.7174 70.6395 29.0099C70.6295 29.0724 70.627 29.1274 70.6144 29.1949C70.4614 29.9474 70.0976 30.8424 69.5882 31.7174C69.2947 32.2199 68.9811 32.6799 68.6674 33.0649C68.7678 33.0949 68.8631 33.1274 68.956 33.1624C69.5456 33.3824 70.0022 33.6899 70.351 34.0949C70.5241 34.2949 70.6546 34.5224 70.77 34.7624C71.2442 35.7649 71.2467 37.0899 71.0736 38.7224C71.0033 39.3649 70.9029 40.1649 70.77 41.0449C70.6395 41.8924 70.4764 42.8125 70.2757 43.745H75.6449V43.7399ZM133.226 23.5749C133.226 23.0974 133.316 22.6499 133.494 22.2373C133.672 21.8223 133.918 21.4673 134.227 21.1673C134.535 20.8673 134.897 20.6323 135.306 20.4598C135.715 20.2873 136.151 20.2023 136.613 20.2023C137.075 20.2023 137.509 20.2873 137.92 20.4598C138.329 20.6323 138.69 20.8673 138.999 21.1673C139.308 21.4673 139.553 21.8248 139.732 22.2373C139.91 22.6524 140 23.0974 140 23.5749C140 24.0599 139.91 24.5074 139.732 24.9174C139.553 25.3299 139.308 25.6849 138.999 25.9824C138.69 26.2824 138.329 26.5174 137.92 26.6899C137.511 26.8624 137.075 26.9474 136.613 26.9474C136.151 26.9474 135.717 26.8624 135.306 26.6899C134.894 26.5174 134.535 26.2824 134.227 25.9824C133.918 25.6824 133.672 25.3274 133.494 24.9174C133.316 24.5074 133.226 24.0599 133.226 23.5749ZM133.828 23.5749C133.828 23.9874 133.901 24.3674 134.046 24.7174C134.192 25.0674 134.39 25.3724 134.638 25.6299C134.887 25.8874 135.18 26.0899 135.521 26.2374C135.86 26.3849 136.227 26.4599 136.613 26.4599C137.002 26.4599 137.363 26.3849 137.702 26.2374C138.038 26.0899 138.334 25.8874 138.585 25.6299C138.836 25.3724 139.037 25.0699 139.182 24.7174C139.328 24.3674 139.4 23.9849 139.4 23.5749C139.4 23.1699 139.328 22.7899 139.182 22.4374C139.037 22.0823 138.838 21.7773 138.585 21.5198C138.334 21.2623 138.038 21.0598 137.702 20.9123C137.366 20.7648 137.002 20.6898 136.613 20.6898C136.224 20.6898 135.86 20.7648 135.521 20.9123C135.18 21.0598 134.887 21.2623 134.638 21.5198C134.39 21.7773 134.192 22.0823 134.046 22.4374C133.901 22.7899 133.828 23.1699 133.828 23.5749ZM135.321 21.5973H136.814C137.737 21.5973 138.199 21.9723 138.199 22.7224C138.199 23.0799 138.098 23.3399 137.897 23.5074C137.697 23.6749 137.448 23.7724 137.15 23.8024L138.289 25.5449H137.642L136.568 23.8474H135.92V25.5449H135.318V21.5973H135.321ZM135.92 23.3574H136.54C136.673 23.3574 136.804 23.3524 136.932 23.3449C137.059 23.3349 137.172 23.3099 137.268 23.2674C137.366 23.2249 137.443 23.1574 137.504 23.0674C137.564 22.9774 137.594 22.8524 137.594 22.6949C137.594 22.5624 137.566 22.4549 137.511 22.3724C137.456 22.2899 137.386 22.2298 137.303 22.1873C137.218 22.1448 137.125 22.1173 137.022 22.1048C136.919 22.0923 136.816 22.0874 136.713 22.0874H135.92V23.3574Z" fill="#AF6CDA"/>
</svg>
