<?xml version="1.0" encoding="UTF-8"?>
<svg version="1.1" xmlns="http://www.w3.org/2000/svg" width="160" height="160">
<path d="M0 0 C1.85581966 1.85581966 1.12004366 4.49398306 1.12442017 6.96286011 C1.12082489 7.81953278 1.11722961 8.67620544 1.11352539 9.55883789 C1.11367142 10.45631241 1.11381744 11.35378693 1.1139679 12.27845764 C1.11326842 15.25988134 1.10547441 18.2412434 1.09765625 21.22265625 C1.09579219 23.28388942 1.09436823 25.34512304 1.09336853 27.40635681 C1.08954237 32.8430401 1.07971126 38.27969686 1.06866455 43.71636963 C1.05845253 49.25947714 1.05387136 54.80258892 1.04882812 60.34570312 C1.03808908 71.23048043 1.02101149 82.11523802 1 93 C-0.15254776 92.71741333 -1.30509552 92.43482666 -2.49256897 92.14367676 C-4.02761882 91.77326757 -5.56273273 91.40312376 -7.09790039 91.03320312 C-7.85481422 90.84687317 -8.61172806 90.66054321 -9.39157867 90.46856689 C-15.77906053 88.93852789 -21.86328525 88.37883591 -28.4375 88.5 C-30.07658325 88.51595215 -30.07658325 88.51595215 -31.7487793 88.53222656 C-48.70042368 88.91515026 -65.40654711 92.31576283 -81.9777832 95.69238281 C-100.44868523 99.40524187 -122.19471846 101.02617291 -140 94 C-141.83357444 92.16642556 -141.11999967 89.60364305 -141.12442017 87.1640625 C-141.12082489 86.32609131 -141.11722961 85.48812012 -141.11352539 84.62475586 C-141.11367142 83.74678848 -141.11381744 82.86882111 -141.1139679 81.96424866 C-141.11326844 79.04775565 -141.10547455 76.13132567 -141.09765625 73.21484375 C-141.09579218 71.19845108 -141.09436823 69.18205796 -141.09336853 67.16566467 C-141.08954244 61.84734862 -141.07971139 56.5290597 -141.06866455 51.21075439 C-141.05845238 45.78829312 -141.05387133 40.36582748 -141.04882812 34.94335938 C-141.0380892 24.29556097 -141.02101169 13.64778274 -141 3 C-140.11304443 3.20858643 -139.22608887 3.41717285 -138.31225586 3.63208008 C-136.56247437 4.04043091 -136.56247437 4.04043091 -134.77734375 4.45703125 C-133.62226318 4.72749268 -132.46718262 4.9979541 -131.27709961 5.27661133 C-127.16576966 6.18414844 -123.19932704 6.76516921 -119 7 C-118.0925 7.06445312 -117.185 7.12890625 -116.25 7.1953125 C-96.71925346 7.91335465 -76.85936287 2.71117888 -57.76220703 -0.98095703 C-38.48977368 -4.68951729 -18.87557168 -6.58265735 0 0 Z " fill="#DC3D35" transform="translate(150,33)"/>
<path d="M0 0 C0 29.04 0 58.08 0 88 C-11.25 90.25 -11.25 90.25 -17 90 C-17 90.66 -17 91.32 -17 92 C-18.13179687 92.20496094 -19.26359375 92.40992187 -20.4296875 92.62109375 C-21.91148761 92.89306972 -23.39325685 93.16521387 -24.875 93.4375 C-25.62136719 93.57220703 -26.36773437 93.70691406 -27.13671875 93.84570312 C-31.18533378 94.54536611 -31.18533378 94.54536611 -35 96 C-39.62 96 -44.24 96 -49 96 C-49 67.29 -49 38.58 -49 9 C-2.875 0 -2.875 0 0 0 Z " fill="#FAFBFA" transform="translate(104,30)"/>
<path d="M0 0 C0.88695557 0.20858643 1.77391113 0.41717285 2.68774414 0.63208008 C4.43752563 1.04043091 4.43752563 1.04043091 6.22265625 1.45703125 C7.37773682 1.72749268 8.53281738 1.9979541 9.72290039 2.27661133 C21.76099934 4.93390755 33.80133816 4.21986618 46 3 C46 33.03 46 63.06 46 94 C31.98086986 97.50478253 14.45742122 96.31045623 1 91 C-0.83357444 89.16642556 -0.11999967 86.60364305 -0.12442017 84.1640625 C-0.12082489 83.32609131 -0.11722961 82.48812012 -0.11352539 81.62475586 C-0.11367142 80.74678848 -0.11381744 79.86882111 -0.1139679 78.96424866 C-0.11326844 76.04775565 -0.10547455 73.13132567 -0.09765625 70.21484375 C-0.09579218 68.19845108 -0.09436823 66.18205796 -0.09336853 64.16566467 C-0.08954244 58.84734862 -0.07971139 53.5290597 -0.06866455 48.21075439 C-0.05845238 42.78829312 -0.05387133 37.36582748 -0.04882812 31.94335938 C-0.0380892 21.29556097 -0.02101169 10.64778274 0 0 Z " fill="#0C5395" transform="translate(9,36)"/>
<path d="M0 0 C1.85581966 1.85581966 1.12004366 4.49398306 1.12442017 6.96286011 C1.11902725 8.24786911 1.11902725 8.24786911 1.11352539 9.55883789 C1.11367142 10.45631241 1.11381744 11.35378693 1.1139679 12.27845764 C1.11326842 15.25988134 1.10547441 18.2412434 1.09765625 21.22265625 C1.09579219 23.28388942 1.09436823 25.34512304 1.09336853 27.40635681 C1.08954237 32.8430401 1.07971126 38.27969686 1.06866455 43.71636963 C1.05845253 49.25947714 1.05387136 54.80258892 1.04882812 60.34570312 C1.03808908 71.23048043 1.02101149 82.11523802 1 93 C-0.15254776 92.71741333 -1.30509552 92.43482666 -2.49256897 92.14367676 C-4.02761882 91.77326757 -5.56273273 91.40312376 -7.09790039 91.03320312 C-7.85481422 90.84687317 -8.61172806 90.66054321 -9.39157867 90.46856689 C-15.77906053 88.93852789 -21.86328525 88.37883591 -28.4375 88.5 C-30.07658325 88.51595215 -30.07658325 88.51595215 -31.7487793 88.53222656 C-48.81873026 88.91782271 -65.64856334 92.35096352 -82.3293457 95.78027344 C-86.63098018 96.64837306 -90.5827402 97.19948915 -95 97 C-95 95.68 -95 94.36 -95 93 C-93.65808594 92.94392578 -93.65808594 92.94392578 -92.2890625 92.88671875 C-85.5562417 92.52064854 -79.64336137 91.80800073 -73.265625 89.6328125 C-69.7670595 88.65562696 -66.61014347 88.79943647 -63 89 C-63 88.34 -63 87.68 -63 87 C-61.10507994 86.66151348 -59.20901534 86.32943089 -57.3125 86 C-56.25675781 85.814375 -55.20101562 85.62875 -54.11328125 85.4375 C-51 85 -51 85 -46 85 C-46 55.96 -46 26.92 -46 -3 C-30.47581614 -5.21774055 -14.92580765 -5.20521863 0 0 Z M-45 3 C-45 29.4 -45 55.8 -45 83 C-38.565 82.01 -38.565 82.01 -32 81 C-27.6875 80.953125 -27.6875 80.953125 -24 81.25 C-22.783125 81.33765625 -21.56625 81.4253125 -20.3125 81.515625 C-14.51898034 82.16634641 -8.76215685 83.11351433 -3 84 C-3 57.6 -3 31.2 -3 4 C-10.19725329 1.18383647 -10.19725329 1.18383647 -17.1875 0.63671875 C-18.29867187 0.63736328 -19.40984375 0.63800781 -20.5546875 0.63867188 C-21.69164062 0.65478516 -22.82859375 0.67089844 -24 0.6875 C-25.13695313 0.68427734 -26.27390625 0.68105469 -27.4453125 0.67773438 C-33.90427582 0.71894586 -38.52509992 1.38127498 -45 3 Z " fill="#B83D37" transform="translate(150,33)"/>
<path d="M0 0 C0.99 1.485 0.99 1.485 2 3 C3.0828125 3.99 3.0828125 3.99 4.1875 5 C6.22819336 8.37769936 6.1188525 8.97161872 5.61938477 12.7043457 C4.81524638 20.04489981 4.87477707 27.35785621 4.90234375 34.73046875 C4.90421342 36.2169032 4.90563473 37.70333827 4.90663147 39.18977356 C4.91041344 43.0645219 4.92020577 46.93923157 4.93133545 50.81396484 C4.9416435 54.78287229 4.94614903 58.7517861 4.95117188 62.72070312 C4.9618328 70.4804862 4.97885597 78.24023764 5 86 C6.21558594 86.20496094 7.43117188 86.40992187 8.68359375 86.62109375 C10.26826514 86.89301961 11.85289863 87.16516643 13.4375 87.4375 C14.64116211 87.63956055 14.64116211 87.63956055 15.86914062 87.84570312 C21.88671875 88.88671875 21.88671875 88.88671875 23 90 C24.70772358 90.08713831 26.41898649 90.10700007 28.12890625 90.09765625 C29.16337891 90.09443359 30.19785156 90.09121094 31.26367188 90.08789062 C32.35228516 90.07951172 33.44089844 90.07113281 34.5625 90.0625 C35.65498047 90.05798828 36.74746094 90.05347656 37.87304688 90.04882812 C40.58208495 90.03699826 43.29101599 90.02051543 46 90 C46 91.32 46 92.64 46 94 C32.40602093 97.98925364 14.09377125 96.16695569 1 91 C-0.83357444 89.16642556 -0.11999967 86.60364305 -0.12442017 84.1640625 C-0.12082489 83.32609131 -0.11722961 82.48812012 -0.11352539 81.62475586 C-0.11367142 80.74678848 -0.11381744 79.86882111 -0.1139679 78.96424866 C-0.11326844 76.04775565 -0.10547455 73.13132567 -0.09765625 70.21484375 C-0.09579218 68.19845108 -0.09436823 66.18205796 -0.09336853 64.16566467 C-0.08954244 58.84734862 -0.07971139 53.5290597 -0.06866455 48.21075439 C-0.05845238 42.78829312 -0.05387133 37.36582748 -0.04882812 31.94335938 C-0.0380892 21.29556097 -0.02101169 10.64778274 0 0 Z " fill="#022F59" transform="translate(9,36)"/>
<path d="M0 0 C0 29.04 0 58.08 0 88 C-11.25 90.25 -11.25 90.25 -17 90 C-17 90.66 -17 91.32 -17 92 C-18.13179687 92.20496094 -19.26359375 92.40992187 -20.4296875 92.62109375 C-21.91148761 92.89306972 -23.39325685 93.16521387 -24.875 93.4375 C-25.62136719 93.57220703 -26.36773437 93.70691406 -27.13671875 93.84570312 C-31.18533378 94.54536611 -31.18533378 94.54536611 -35 96 C-39.62 96 -44.24 96 -49 96 C-49 67.29 -49 38.58 -49 9 C-2.875 0 -2.875 0 0 0 Z M-9.34375 6.8046875 C-10.17237549 6.97508545 -11.00100098 7.1454834 -11.85473633 7.32104492 C-12.72767334 7.5038501 -13.60061035 7.68665527 -14.5 7.875 C-23.3003449 9.67782369 -32.09925503 11.33095038 -41 12.5625 C-44.18978929 12.97661488 -44.18978929 12.97661488 -48 14 C-48 40.07 -48 66.14 -48 93 C-38.52054613 91.73607282 -29.32076385 90.39335144 -20 88.4375 C-17.87537145 87.99690291 -15.75038016 87.55805079 -13.625 87.12109375 C-12.70976563 86.9295874 -11.79453125 86.73808105 -10.8515625 86.54077148 C-7.58599054 85.92148708 -4.29036836 85.47005262 -1 85 C-1 58.93 -1 32.86 -1 6 C-4.09923054 6 -6.37739805 6.18443854 -9.34375 6.8046875 Z " fill="#E8E8E9" transform="translate(104,30)"/>
<path d="M0 0 C0.33 0 0.66 0 1 0 C1 29.37 1 58.74 1 89 C-4.61 87.68 -10.22 86.36 -16 85 C-21.44474996 84.74134204 -26.64189887 84.60899387 -32.0625 84.75 C-33.43031144 84.7701603 -34.79815266 84.78839372 -36.16601562 84.8046875 C-39.44481384 84.85103094 -42.72198214 84.91623738 -46 85 C-45.67 83.68 -45.34 82.36 -45 81 C-38.79414245 79.25362803 -32.72234186 78.78296255 -26.3125 78.75 C-25.61979004 78.74097656 -24.92708008 78.73195313 -24.21337891 78.72265625 C-19.14640237 78.75011334 -14.19815746 79.32263815 -9.18432617 80.01660156 C-8.49168419 80.11079376 -7.79904221 80.20498596 -7.08541107 80.30203247 C-5.39002332 80.53285412 -3.69497593 80.76617344 -2 81 C-2.00444122 80.01472321 -2.00888245 79.02944641 -2.01345825 78.01431274 C-2.05394432 68.74377913 -2.08395547 59.47326337 -2.10362434 50.20266151 C-2.11407612 45.43617706 -2.12826064 40.66976379 -2.15087891 35.90332031 C-2.17255773 31.30625073 -2.18455812 26.70924976 -2.18975449 22.11213303 C-2.19345919 20.35539036 -2.20069322 18.59865159 -2.21146011 16.84193802 C-2.22590924 14.38754312 -2.22798073 11.93343427 -2.22705078 9.47900391 C-2.23424133 8.74748611 -2.24143188 8.01596832 -2.24884033 7.26228333 C-2.22810432 2.22810432 -2.22810432 2.22810432 0 0 Z " fill="#A43832" transform="translate(150,37)"/>
<path d="M0 0 C-0.33 0.99 -0.66 1.98 -1 3 C-6.51512034 4.25343644 -6.51512034 4.25343644 -8.84082031 3.0378418 C-11.61764329 1.70312058 -13.72300094 1.75711697 -16.796875 1.76953125 C-17.9209375 1.77146484 -19.045 1.77339844 -20.203125 1.77539062 C-21.95882812 1.79375977 -21.95882812 1.79375977 -23.75 1.8125 C-25.4825 1.8134668 -25.4825 1.8134668 -27.25 1.81445312 C-33.33059601 1.84568906 -38.91302866 2.23912858 -45 3 C-45 29.73 -45 56.46 -45 84 C-45.33 84 -45.66 84 -46 84 C-46 55.29 -46 26.58 -46 -3 C-30.29821596 -5.24311201 -15.1281613 -4.91829918 0 0 Z " fill="#E56761" transform="translate(150,33)"/>
<path d="M0 0 C1.20914062 0.2165625 2.41828125 0.433125 3.6640625 0.65625 C17.27337782 3.00609999 29.15527913 3.38447209 43 2 C43 30.05 43 58.1 43 87 C42.67 87 42.34 87 42 87 C41.67 61.26 41.34 35.52 41 9 C35.06 9 29.12 9 23 9 C6.74076984 7.51060487 6.74076984 7.51060487 1 3 C0.67 2.01 0.34 1.02 0 0 Z " fill="#3570A8" transform="translate(12,37)"/>
<path d="M0 0 C0.99 1.485 0.99 1.485 2 3 C3.0828125 3.99 3.0828125 3.99 4.1875 5 C6.22819336 8.37769936 6.1188525 8.97161872 5.61938477 12.7043457 C4.81524638 20.04489981 4.87477707 27.35785621 4.90234375 34.73046875 C4.90421342 36.2169032 4.90563473 37.70333827 4.90663147 39.18977356 C4.91041344 43.0645219 4.92020577 46.93923157 4.93133545 50.81396484 C4.9416435 54.78287229 4.94614903 58.7517861 4.95117188 62.72070312 C4.9618328 70.4804862 4.97885597 78.24023764 5 86 C6.21558594 86.20496094 7.43117188 86.40992187 8.68359375 86.62109375 C10.26826514 86.89301961 11.85289863 87.16516643 13.4375 87.4375 C14.64116211 87.63956055 14.64116211 87.63956055 15.86914062 87.84570312 C21.88671875 88.88671875 21.88671875 88.88671875 23 90 C24.70772358 90.08713831 26.41898649 90.10700007 28.12890625 90.09765625 C29.16337891 90.09443359 30.19785156 90.09121094 31.26367188 90.08789062 C32.35228516 90.07951172 33.44089844 90.07113281 34.5625 90.0625 C35.65498047 90.05798828 36.74746094 90.05347656 37.87304688 90.04882812 C40.58208495 90.03699826 43.29101599 90.02051543 46 90 C45.505 91.98 45.505 91.98 45 94 C45 93.34 45 92.68 45 92 C44.27409668 92.01047363 43.54819336 92.02094727 42.80029297 92.03173828 C39.49189759 92.0734696 36.18355776 92.09938064 32.875 92.125 C31.73289062 92.14175781 30.59078125 92.15851563 29.4140625 92.17578125 C27.75117187 92.18544922 27.75117187 92.18544922 26.0546875 92.1953125 C24.53077393 92.21102295 24.53077393 92.21102295 22.97607422 92.22705078 C19.7068741 91.97763683 17.06700519 91.12983574 14 90 C11.65787684 89.46970796 9.3118792 89.01178651 6.953125 88.5625 C5 88 5 88 3 86 C2.79318928 83.48235816 2.7094941 81.07227636 2.71289062 78.55273438 C2.70605759 77.78512283 2.69922455 77.01751129 2.69218445 76.22663879 C2.67857951 74.55751992 2.66953712 72.88835915 2.66447449 71.2191925 C2.65620801 68.58034615 2.63572516 65.94184966 2.61193848 63.30310059 C2.55543021 56.74952528 2.5202857 50.19586511 2.48431396 43.64215088 C2.45311851 38.10608419 2.41396242 32.5701866 2.36405945 27.03425598 C2.34392977 24.42951235 2.33565924 21.82489814 2.32775879 19.22009277 C2.31479102 17.62914554 2.3012714 16.03820268 2.28710938 14.44726562 C2.28858223 13.35470207 2.28858223 13.35470207 2.29008484 12.24006653 C2.35704934 8.16979148 2.35704934 8.16979148 0 5 C-0.125 2.375 -0.125 2.375 0 0 Z " fill="#043B6F" transform="translate(9,36)"/>
<path d="M0 0 C1.13695313 -0.01611328 2.27390625 -0.03222656 3.4453125 -0.04882812 C4.55648437 -0.04947266 5.66765625 -0.05011719 6.8125 -0.05078125 C7.80894531 -0.05376221 8.80539063 -0.05674316 9.83203125 -0.05981445 C13 0.3125 13 0.3125 21 3.3125 C21 29.7125 21 56.1125 21 83.3125 C20.01 82.9825 19.02 82.6525 18 82.3125 C18.33 81.9825 18.66 81.6525 19 81.3125 C19.09492722 78.96996218 19.12559791 76.65703896 19.11352539 74.31420898 C19.11367142 73.58254517 19.11381744 72.85088135 19.1139679 72.0970459 C19.11326867 69.66753216 19.10547585 67.23809417 19.09765625 64.80859375 C19.0957921 63.12850486 19.09436819 61.44841543 19.09336853 59.76832581 C19.08954307 55.33776357 19.07971256 50.9072339 19.06866455 46.47668457 C19.05845103 41.95907024 19.05387104 37.44145066 19.04882812 32.92382812 C19.03809031 24.05337107 19.02101356 15.18293824 19 6.3125 C16.77301759 5.81572892 14.54483459 5.3243381 12.31616211 4.83520508 C11.0754747 4.56098221 9.83478729 4.28675934 8.5565033 4.00422668 C4.16431734 3.14996283 0.02074253 2.89876834 -4.4375 3 C-5.17419922 2.99677734 -5.91089844 2.99355469 -6.66992188 2.99023438 C-11.45508146 3.03693957 -15.45701192 3.81014162 -20 5.3125 C-20.33 4.3225 -20.66 3.3325 -21 2.3125 C-13.96085312 0.14727222 -7.3340357 -0.02078808 0 0 Z " fill="#CD413B" transform="translate(126,33.6875)"/>
<path d="M0 0 C0 0.66 0 1.32 0 2 C1.98 1.67 3.96 1.34 6 1 C6 2.98 6 4.96 6 7 C5.26523438 6.7834375 4.53046875 6.566875 3.7734375 6.34375 C-10.24098115 2.86430813 -24.6650038 3.72874097 -39 4 C-38.67 2.68 -38.34 1.36 -38 0 C-26.0324599 -3.36774998 -11.9675401 -3.36774998 0 0 Z " fill="#77211D" transform="translate(143,118)"/>
<path d="M0 0 C0 1.32 0 2.64 0 4 C-6.01269719 5.14629187 -12.02669392 6.28540539 -18.04199219 7.41796875 C-20.08695916 7.80403157 -22.1315612 8.1920328 -24.17578125 8.58203125 C-27.11884629 9.14316038 -30.06316526 9.69724185 -33.0078125 10.25 C-33.9174173 10.42499023 -34.82702209 10.59998047 -35.76419067 10.78027344 C-40.24211028 11.61381355 -44.42062991 12.21084869 -49 12 C-49 10.68 -49 9.36 -49 8 C-48.10539062 7.96261719 -47.21078125 7.92523438 -46.2890625 7.88671875 C-39.5562417 7.52064854 -33.64336137 6.80800073 -27.265625 4.6328125 C-23.7670595 3.65562696 -20.61014347 3.79943647 -17 4 C-17 3.34 -17 2.68 -17 2 C-15.10507994 1.66151348 -13.20901534 1.32943089 -11.3125 1 C-9.72888672 0.7215625 -9.72888672 0.7215625 -8.11328125 0.4375 C-5.35095938 0.04931926 -2.78257957 -0.08259976 0 0 Z " fill="#8B8B8B" transform="translate(104,118)"/>
<path d="M0 0 C0.495 1.98 0.495 1.98 1 4 C-4.94 4.495 -4.94 4.495 -11 5 C-11 5.66 -11 6.32 -11 7 C-12.43279297 7.16435547 -12.43279297 7.16435547 -13.89453125 7.33203125 C-20.94065025 8.19611165 -27.52856008 9.30559007 -34.34765625 11.3359375 C-38.83676818 12.45986832 -43.39088357 12.74146155 -48 13 C-48 11.68 -48 10.36 -48 9 C-42.2895912 7.87669721 -36.5787251 6.75575907 -30.86743164 5.63696289 C-28.92655042 5.25642014 -26.98579337 4.87524347 -25.04516602 4.4934082 C-22.24788687 3.94313554 -19.45016188 3.395181 -16.65234375 2.84765625 C-15.7916478 2.6778273 -14.93095184 2.50799835 -14.04417419 2.33302307 C-9.37396482 1.42160539 -4.7171528 0.62617073 0 0 Z " fill="#CDCDCD" transform="translate(103,30)"/>
<path d="M0 0 C0 0.33 0 0.66 0 1 C-5.76081841 2.2982126 -11.08739655 3.25706972 -17 3 C-17 3.66 -17 4.32 -17 5 C-18.13179687 5.20496094 -19.26359375 5.40992187 -20.4296875 5.62109375 C-21.91148761 5.89306972 -23.39325685 6.16521387 -24.875 6.4375 C-25.62136719 6.57220703 -26.36773437 6.70691406 -27.13671875 6.84570312 C-31.18533378 7.54536611 -31.18533378 7.54536611 -35 9 C-37.37402501 9.07116382 -39.75000677 9.08409085 -42.125 9.0625 C-43.40632813 9.05347656 -44.68765625 9.04445313 -46.0078125 9.03515625 C-47.48894531 9.01775391 -47.48894531 9.01775391 -49 9 C-49 8.34 -49 7.68 -49 7 C-48.34 7 -47.68 7 -47 7 C-47 6.34 -47 5.68 -47 5 C-46.00371582 4.87939209 -46.00371582 4.87939209 -44.98730469 4.75634766 C-41.90786216 4.38196521 -38.82886276 4.00412129 -35.75 3.625 C-34.64567627 3.48924561 -33.54135254 3.35349121 -32.40356445 3.21362305 C-26.97018918 2.53510318 -21.57348096 1.80937264 -16.1875 0.8125 C-10.77508436 -0.1606089 -5.48468586 -0.19433926 0 0 Z " fill="#D8D8D8" transform="translate(104,117)"/>
<path d="M0 0 C0 0.99 0 1.98 0 3 C-6.58623418 2.07792722 -6.58623418 2.07792722 -9.80908203 1.47094727 C-13.231381 0.9658505 -16.47110924 0.88704031 -19.9296875 0.90234375 C-21.86328125 0.90717773 -21.86328125 0.90717773 -23.8359375 0.91210938 C-25.18229236 0.92046267 -26.52864652 0.92892759 -27.875 0.9375 C-29.24479004 0.9425217 -30.61458185 0.94708343 -31.984375 0.95117188 C-35.3229619 0.96292746 -38.66145815 0.97936036 -42 1 C-42.33 1.66 -42.66 2.32 -43 3 C-43 1.35 -43 -0.3 -43 -2 C-29.01094691 -4.41593675 -13.56397443 -4.37379598 0 0 Z " fill="#BC716D" transform="translate(147,32)"/>
<path d="M0 0 C1.16402344 0.10828125 1.16402344 0.10828125 2.3515625 0.21875 C13.96124553 1.21624067 25.42372017 1.49371353 37 0 C37 1.32 37 2.64 37 4 C28.67783742 8.16108129 13.08172695 5.23685558 4.08203125 3.73046875 C2 3 2 3 0 0 Z " fill="#577B9D" transform="translate(18,39)"/>
<path d="M0 0 C0.60134766 0.61488281 0.60134766 0.61488281 1.21484375 1.2421875 C5.86630684 5.65105728 9.69975272 7.21483405 16 8 C16.64026123 8.08612549 17.28052246 8.17225098 17.94018555 8.26098633 C23.66875753 8.97855407 29.29423279 9.12067492 35.0625 9.0625 C35.92810547 9.05798828 36.79371094 9.05347656 37.68554688 9.04882812 C39.79039539 9.03719913 41.89520758 9.01927073 44 9 C44 9.66 44 10.32 44 11 C30.09477706 12.93216082 15.71518753 14.02292334 3 7 C0.5461317 4.40298938 0 3.62527461 0 0 Z " fill="#246199" transform="translate(10,36)"/>
<path d="M0 0 C1.13695313 -0.01611328 2.27390625 -0.03222656 3.4453125 -0.04882812 C10.02658786 -0.05264557 15.0144469 0.53244531 21 3.3125 C21 3.6425 21 3.9725 21 4.3125 C20.05382812 4.2403125 19.10765625 4.168125 18.1328125 4.09375 C10.57024975 3.54907521 3.02025749 3.18825554 -4.5625 3.125 C-5.66730713 3.10566406 -5.66730713 3.10566406 -6.79443359 3.0859375 C-11.56446492 3.0772588 -15.47021674 3.80654052 -20 5.3125 C-20.33 4.3225 -20.66 3.3325 -21 2.3125 C-13.96085312 0.14727222 -7.3340357 -0.02078808 0 0 Z " fill="#CD4C44" transform="translate(126,33.6875)"/>
<path d="M0 0 C1.00933594 0.05317383 1.00933594 0.05317383 2.0390625 0.10742188 C6.64836458 0.4055138 10.66830084 1.15703996 15 2.6875 C15.495 3.6775 15.495 3.6775 16 4.6875 C14.88625 4.5225 13.7725 4.3575 12.625 4.1875 C1.13468193 2.93301907 -10.74453802 2.91082215 -22 5.6875 C-21.67 4.6975 -21.34 3.7075 -21 2.6875 C-14.21401833 -0.22077786 -7.27077966 -0.50839743 0 0 Z " fill="#BE3A33" transform="translate(126,113.3125)"/>
<path d="M0 0 C0 0.66 0 1.32 0 2 C1.98 1.67 3.96 1.34 6 1 C6 1.66 6 2.32 6 3 C-0.39951804 3.25096149 -0.39951804 3.25096149 -3.37695312 2.0065918 C-6.35764801 0.86275291 -8.59700019 0.75630676 -11.78125 0.76953125 C-13.41513672 0.77243164 -13.41513672 0.77243164 -15.08203125 0.77539062 C-16.20996094 0.78763672 -17.33789062 0.79988281 -18.5 0.8125 C-19.62792969 0.81314453 -20.75585938 0.81378906 -21.91796875 0.81445312 C-26.76235164 0.84025161 -31.26098974 0.91532927 -36 2 C-35.67 2.66 -35.34 3.32 -35 4 C-36.32 4 -37.64 4 -39 4 C-38.67 2.68 -38.34 1.36 -38 0 C-26.0324599 -3.36774998 -11.9675401 -3.36774998 0 0 Z " fill="#952822" transform="translate(143,118)"/>
<path d="M0 0 C-0.33 1.32 -0.66 2.64 -1 4 C-4.0000624 4.02721831 -6.99987256 4.04694378 -10 4.0625 C-11.25876953 4.07506836 -11.25876953 4.07506836 -12.54296875 4.08789062 C-17.79319339 4.10824033 -22.80455662 3.76368207 -28 3 C-28 2.34 -28 1.68 -28 1 C-26.7934375 1.01160156 -25.586875 1.02320313 -24.34375 1.03515625 C-22.72916823 1.04454335 -21.11458476 1.05364256 -19.5 1.0625 C-18.70851563 1.07087891 -17.91703125 1.07925781 -17.1015625 1.08789062 C-11.34804357 1.11147062 -5.70015444 0 0 0 Z " fill="#6287A4" transform="translate(55,39)"/>
<path d="M0 0 C-5.80955895 3.12822405 -10.76628175 4.2496928 -17.375 4.125 C-18.62023438 4.10695313 -19.86546875 4.08890625 -21.1484375 4.0703125 C-22.55996094 4.03550781 -22.55996094 4.03550781 -24 4 C-24 3.34 -24 2.68 -24 2 C-15.97649696 0.81603117 -8.13544686 -0.28545428 0 0 Z " fill="#B0B0B0" transform="translate(79,122)"/>
<path d="M0 0 C-1 2 -1 2 -3 3.125 C-7.04017477 4.30338431 -10.82206849 4.16384045 -15 4 C-15.33 4.66 -15.66 5.32 -16 6 C-16 4.35 -16 2.7 -16 1 C-10.61509359 0.08342019 -5.45769811 -0.11138159 0 0 Z " fill="#C67A77" transform="translate(120,29)"/>
<path d="M0 0 C0.33 0.66 0.66 1.32 1 2 C-7.25 1.34 -15.5 0.68 -24 0 C-24 -0.33 -24 -0.66 -24 -1 C-15.85639744 -2.41627871 -7.83541238 -3.00079623 0 0 Z " fill="#B62E27" transform="translate(141,116)"/>
<path d="M0 0 C5.75 1.75 5.75 1.75 8 4 C10.88717605 4.6837613 10.88717605 4.6837613 14.125 5.125 C15.76855469 5.37636719 15.76855469 5.37636719 17.4453125 5.6328125 C18.28835937 5.75398438 19.13140625 5.87515625 20 6 C20 6.33 20 6.66 20 7 C12.52879916 7.44164734 7.05974587 7.71313568 1 3 C0.67 2.01 0.34 1.02 0 0 Z " fill="#497094" transform="translate(12,37)"/>
<path d="M0 0 C0 0.33 0 0.66 0 1 C-5.76081841 2.2982126 -11.08739655 3.25706972 -17 3 C-17 3.66 -17 4.32 -17 5 C-19.64 5 -22.28 5 -25 5 C-16.82858239 0.71884727 -9.16413554 -0.47040239 0 0 Z " fill="#BDBDBD" transform="translate(104,117)"/>
<path d="M0 0 C3.18748029 -0.02932572 6.37492528 -0.04690739 9.5625 -0.0625 C10.90538086 -0.07506836 10.90538086 -0.07506836 12.27539062 -0.08789062 C16.23306632 -0.10238761 20.05336581 -0.07470155 23.96484375 0.56640625 C27.03697664 1.23612645 27.03697664 1.23612645 30 0 C29.67 0.99 29.34 1.98 29 3 C24.66419888 3.98540935 22.87445548 3.953591 19 2 C16.78395837 1.63991339 16.78395837 1.63991339 14.453125 1.5859375 C13.18662109 1.52792969 13.18662109 1.52792969 11.89453125 1.46875 C10.58548828 1.42234375 10.58548828 1.42234375 9.25 1.375 C8.36183594 1.33632813 7.47367187 1.29765625 6.55859375 1.2578125 C4.3726002 1.16379127 2.18660938 1.07813857 0 1 C0 0.67 0 0.34 0 0 Z " fill="#C35D57" transform="translate(120,33)"/>
<path d="M0 0 C0.33 0.66 0.66 1.32 1 2 C-1.10372401 2.33611568 -3.20799657 2.66879946 -5.3125 3 C-7.07013672 3.2784375 -7.07013672 3.2784375 -8.86328125 3.5625 C-12 4 -12 4 -15 4 C-15 3.34 -15 2.68 -15 2 C-9.77487721 0.53329887 -5.4185766 -0.22577402 0 0 Z " fill="#E0534C" transform="translate(120,34)"/>
<path d="M0 0 C0 0.33 0 0.66 0 1 C-3.96 1.66 -7.92 2.32 -12 3 C-11.67 3.66 -11.34 4.32 -11 5 C-12.32 5 -13.64 5 -15 5 C-14.67 3.68 -14.34 2.36 -14 1 C-9.23692563 0.04738513 -4.8333472 -0.08333357 0 0 Z " fill="#8A2C27" transform="translate(119,117)"/>
<path d="M0 0 C0.47050781 0.40992188 0.94101563 0.81984375 1.42578125 1.2421875 C2.04839844 1.78101563 2.67101562 2.31984375 3.3125 2.875 C4.23482422 3.67550781 4.23482422 3.67550781 5.17578125 4.4921875 C7.13498212 6.1640447 7.13498212 6.1640447 10 8 C3.52864939 7.51159618 3.52864939 7.51159618 1.0625 5.125 C0 3 0 3 0 0 Z " fill="#2E5B84" transform="translate(10,36)"/>
</svg>
