<svg width="73" height="72" viewBox="0 0 73 72" fill="none" xmlns="http://www.w3.org/2000/svg">
<g style="mix-blend-mode:multiply" opacity="0.12">
<path fill-rule="evenodd" clip-rule="evenodd" d="M50.7278 50.4713C50.98 49.4824 53.8785 38.3217 58.4055 29.8987C58.5045 29.7252 58.6055 29.5394 58.7138 29.3314C60.4725 25.9523 60.985 22.0303 60.157 18.2879C60.089 17.9816 60.0095 17.6789 59.9246 17.3787C60.5379 17.5907 61.1805 17.7438 61.8516 17.8147C67.4269 18.4059 72.2991 13.1597 72.5032 12.9363C72.9876 12.4065 73.0693 11.6224 72.7043 11.0037C72.5501 10.7417 68.8642 4.58757 63.289 3.99623C61.9248 3.85163 60.603 4.05683 59.3815 4.45196L60.7646 2.6239C61.3091 1.90428 61.1657 0.878297 60.4443 0.332509C59.723 -0.213296 58.6967 -0.0722785 58.1522 0.64734L52.6946 7.86065C49.8663 6.13643 46.5674 5.2995 43.2432 5.4908C39.4168 5.71133 35.7818 7.27113 33.0087 9.88263C32.8408 10.0405 32.6895 10.1883 32.5469 10.3332C25.6795 16.973 15.7189 22.8044 14.836 23.3165C11.0308 25.0549 7.68035 27.7446 5.14221 31.0993C-3.33514 42.3037 -1.09607 58.332 10.1333 66.8282C21.3628 75.3245 37.3955 73.1215 45.8732 61.9166C48.4114 58.5619 50.0888 54.6064 50.7279 50.4717" fill="#816DDB"/>
</g>
</svg>
