<svg width="153" height="232" viewBox="0 0 153 232" fill="none" xmlns="http://www.w3.org/2000/svg">
<g style="mix-blend-mode:multiply" opacity="0.06">
<path fill-rule="evenodd" clip-rule="evenodd" d="M124.132 104.293C122.019 102.414 98.245 81.0833 83.279 59.2287C82.9782 58.7644 82.6495 58.2794 82.2754 57.7482C76.1983 49.1221 67.2 42.8712 56.9383 40.1477C56.0981 39.9251 55.2522 39.7356 54.4053 39.5627C55.7075 38.3232 56.9017 36.9368 57.9298 35.3759C66.4775 22.4097 59.7673 3.74702 59.4774 2.96073C58.79 1.09474 56.9648 -0.103936 54.9779 0.00713958C54.137 0.053194 34.3053 1.29304 25.7574 14.2589C23.666 17.4317 22.4893 20.945 21.9075 24.4534L19.1691 18.7245C18.0911 16.4693 15.3842 15.5168 13.1235 16.5974C10.8628 17.678 9.90412 20.3826 10.9821 22.6378L21.7876 45.2435C13.9469 50.0091 7.69067 57.0614 3.93223 65.4842C-0.393135 75.1799 -1.17964 86.1083 1.71809 96.2542C1.8931 96.8681 2.06408 97.4285 2.23914 97.9636C9.84 123.308 11.5165 155.236 11.6532 158.06C11.0897 169.634 13.4455 181.3 18.4707 191.813C35.2549 226.927 77.542 241.809 112.734 224.988C147.925 208.166 162.902 165.914 146.117 130.799C141.092 120.286 133.493 111.126 124.133 104.293" fill="#816DDB"/>
</g>
</svg>
