<svg width="62" height="81" viewBox="0 0 62 81" fill="none" xmlns="http://www.w3.org/2000/svg">
<g style="mix-blend-mode:multiply" opacity="0.12">
<path d="M39.2585 46.5597C42.1913 45.5531 48.2384 43.071 50.7995 38.0504C53.4135 33.1143 51.7374 27.2026 50.798 24.3686C50.4387 23.4133 49.4494 22.97 48.3513 23.3025C45.4185 24.3091 39.3714 26.7912 36.8103 31.8118C34.9675 35.3222 35.3067 39.4751 36.0427 42.5532L28.8862 31.1019C29.11 31.0797 29.3336 31.0585 29.5574 31.0363C32.4902 30.0297 38.5373 27.5476 41.0984 22.527C43.6595 17.5064 42.0363 11.6793 41.0969 8.84525C40.7376 7.88991 39.7484 7.4466 38.6502 7.77916C35.7174 8.78576 29.6703 11.2678 27.1092 16.2885C25.2664 19.7988 25.6056 23.9517 26.3416 27.0298L22.525 20.9221C23.2695 17.7441 24.2465 11.7074 21.3843 7.12693C18.5221 2.54646 12.7536 0.724801 9.48523 0.0544569C8.23995 -0.228774 6.87371 0.624963 6.58242 1.86837C5.69974 5.01489 4.72236 11.051 7.58498 15.6321C10.3944 20.1281 16.2157 22.0342 19.4841 22.7046L23.3006 28.8123C20.8562 26.8009 17.3262 24.7605 13.3098 24.7936C7.72746 24.9793 2.79332 29.2425 0.602567 31.4367C-0.145371 32.1402 -0.212859 33.3614 0.488265 34.103C2.5375 36.2427 7.20237 40.2876 12.7848 40.1019C18.3671 39.9163 23.3013 35.6531 25.492 33.4589C25.6101 33.2675 25.7272 33.0758 25.8452 32.8844L33.0015 44.3366C30.5571 42.3253 27.0271 40.2848 23.0107 40.318C17.4283 40.5037 12.4942 44.7669 10.3034 46.961C9.5555 47.6645 9.48801 48.8857 10.1891 49.6274C12.2384 51.7671 16.9032 55.8119 22.4856 55.6263C28.068 55.4406 33.0021 51.1774 35.1929 48.9833C35.3109 48.7919 35.428 48.6002 35.5461 48.4088L42.7024 59.861C40.258 57.8497 36.728 55.8092 32.7116 55.8424C27.1292 56.028 22.1951 60.2912 20.0043 62.4854C19.2564 63.1889 19.1889 64.4101 19.89 65.1518C21.9392 67.2914 26.6041 71.3363 32.1865 71.1506C37.7689 70.965 42.703 66.7018 44.8938 64.5076C45.0118 64.3162 45.1289 64.1246 45.247 63.9331L55.4245 80.2203C55.9015 80.9836 57.0087 81.2354 57.777 80.7554C58.5453 80.2753 58.8043 79.1697 58.3273 78.4064L48.2549 62.2874C48.4787 62.2652 48.7022 62.2439 48.926 62.2217C51.8589 61.2151 57.906 58.7331 60.4671 53.7124C63.081 48.7764 61.405 42.8647 60.4655 40.0307C60.1062 39.0753 59.117 38.632 58.0189 38.9646C55.0861 39.9712 49.0389 42.4533 46.4778 47.4739C44.6351 50.9842 44.9743 55.1372 45.7102 58.2152L38.5015 46.6791C38.7782 46.7415 39.0024 46.7199 39.2585 46.5599L39.2585 46.5597Z" fill="#816DDB"/>
</g>
</svg>
