<svg width="42" height="41" viewBox="0 0 42 41" fill="none" xmlns="http://www.w3.org/2000/svg">
<path d="M38.8761 3.78801C35.4529 0.172912 29.5144 -1.26859 24.1366 1.30739C22.1579 2.2561 21.0587 4.42312 19.1016 5.34386C17.3581 6.16164 14.6918 5.13379 12.9716 4.74506C10.0514 4.08323 7.74325 4.2886 4.87918 5.03656C0.185412 6.26502 -1.46135 13.2274 1.44355 16.7651C3.362 19.0939 2.76765 21.6038 1.97879 24.3654C0.890889 28.194 -0.20408 31.5047 1.50243 35.4065C3.44672 39.8336 8.54261 41.9167 13.0985 40.6184C17.0225 39.5019 20.4646 36.4522 23.6732 34.0208C30.0202 29.2114 37.2916 23.2535 40.614 15.7993C42.7406 11.0313 41.6194 6.71209 38.8614 3.80027L38.8761 3.78801Z" fill="#F3F3F3"/>
</svg>
