<svg width="69" height="74" viewBox="0 0 69 74" fill="none" xmlns="http://www.w3.org/2000/svg">
<path fill-rule="evenodd" clip-rule="evenodd" d="M42.2259 7.01076C35.4402 13.2661 31.6248 20.1673 39.038 28.2294C45.4405 35.191 53.6369 33.0538 60.4226 26.7995C69.8101 18.1459 69.6164 2.45446 68.4174 1.15027C67.0691 -0.315383 51.9356 -1.93761 42.2254 7.01117L42.2259 7.01076ZM41.7445 67.078C48.5624 73.2982 55.7674 76.5033 63.1591 68.4216C69.5418 61.4418 66.7048 53.4607 59.8878 47.2404C50.4559 38.6352 34.8398 40.1833 33.644 41.4905C32.3003 42.9604 31.991 58.1773 41.7449 67.0784L41.7445 67.078ZM12.333 53.8698C1.4093 53.0791 -0.541746 45.4386 0.113009 36.2328L0.11295 36.2335C1.05152 23.062 13.1841 13.8721 15.1704 14.0154C16.9374 14.1435 27.8321 25.4379 26.9262 38.1733C26.2708 47.3783 21.7665 54.5518 12.333 53.8698Z" fill="white"/>
</svg>
