<svg width="55" height="81" viewBox="0 0 55 81" fill="none" xmlns="http://www.w3.org/2000/svg">
<g style="mix-blend-mode:multiply" opacity="0.12">
<path d="M8.05482 79.6641C12.7429 72.6743 28.1027 70.3396 28.2595 70.3183C28.2842 70.3107 28.2968 70.3068 28.3254 70.3118C35.4745 68.9212 41.5357 64.4423 44.922 58.0311C49.5257 49.3151 48.1198 39.3016 42.7103 32.2891L51.7281 27.3598C53.357 26.4765 54.4956 24.9297 54.8691 23.1029C55.2464 21.2884 54.8002 19.4019 53.6461 17.951L50.4329 13.875L51.7232 12.1592C54.0667 9.05841 53.0493 4.61754 49.6416 2.81614L45.6986 0.731459C42.2744 -1.07857 38.0409 0.607783 36.8095 4.27588L36.1281 6.29312L30.943 5.95017C29.0985 5.82655 27.289 6.52029 25.9993 7.84243C24.7134 9.1767 24.0776 10.9893 24.2539 12.837L25.2685 23.08C16.2246 22.5558 7.26179 27.223 2.76032 35.7445C-0.626039 42.1558 -0.913442 49.676 1.98974 56.4428C2.06038 56.584 8.78713 70.5932 5.65682 78.4071C5.39216 79.0457 5.66293 79.7908 6.27943 80.1171C6.91724 80.423 7.67306 80.2306 8.05489 79.6643L8.05482 79.6641Z" fill="#816DDB"/>
</g>
</svg>
