<svg width="64" height="65" viewBox="0 0 64 65" fill="none" xmlns="http://www.w3.org/2000/svg">
<g style="mix-blend-mode:multiply" opacity="0.12">
<path fill-rule="evenodd" clip-rule="evenodd" d="M45.5479 17.9889C47.7833 18.9172 51.3364 17.8798 56.9227 21.9091C63.1657 26.6639 65.3265 34.9508 63.2136 42.3675C59.4492 55.2308 37.2635 70.8501 25.4998 62.394C21.6881 59.5541 19.5223 55.5379 15.3802 53.6162C11.9617 51.8949 7.22654 51.2849 4.27058 47.5944C-2.36415 40.013 -0.37148 23.3969 4.1777 15.3331C13.5376 -1.18868 31.8884 -0.00124229 38.4525 11.5225C39.4373 13.0375 40.4212 15.4067 41.3409 16.5927C46.3468 10.8298 45.8921 5.96594 45.569 0.905814C46.4905 0.383901 48.1353 0.0614001 49.3192 5.95562e-05C51.2838 7.30057 48.976 12.0224 45.5485 17.9889L45.5479 17.9889Z" fill="#816DDB"/>
</g>
</svg>
