<svg width="85" height="102" viewBox="0 0 85 102" fill="none" xmlns="http://www.w3.org/2000/svg">
<path d="M82.7682 40.9864C79.2211 33.5268 71.3123 29.7874 63.4548 29.0818C56.0143 28.4148 50.3953 31.9425 44.1991 35.4382C43.4872 35.8359 42.7623 36.2464 41.9606 36.3939C40.4211 36.6825 38.8881 35.9898 37.4192 35.4574C25.0846 30.9676 8.59987 33.2895 2.45499 46.246C-1.29737 54.1546 -0.26467 63.6346 2.3267 71.7228C4.19326 77.5597 7.5351 82.5563 11.0822 87.4823C14.1097 91.6835 16.5792 97.2125 21.1655 99.9642C28.8305 104.557 38.824 100.708 44.7315 95.0766C44.1671 95.6154 51.2549 99.5536 51.9219 99.791C54.7506 100.798 57.6563 101.055 60.6005 100.4C75.3405 97.1355 80.7221 77.9958 83.1852 65.142C84.7567 56.9447 86.5142 48.8758 82.7618 40.9864H82.7682Z" fill="#ED6262"/>
<path d="M59.2752 0.3069C56.2837 -0.721004 52.5234 1.06529 49.8033 2.24989C46.8506 3.54104 44.0917 5.30853 41.7657 7.49596C36.4031 12.5477 34.1223 19.4798 35.3047 26.5749C35.7053 28.9942 38.7355 30.3919 41.0421 29.903C41.0486 29.903 41.0615 29.903 41.0679 29.903C48.3108 29.1384 53.9577 25.1521 57.7891 19.2103C60.5803 14.8731 67.1124 2.99575 59.2752 0.300632V0.3069Z" fill="#B3CC57"/>
</svg>
