<svg width="53" height="84" viewBox="0 0 53 84" fill="none" xmlns="http://www.w3.org/2000/svg">
<g style="mix-blend-mode:multiply" opacity="0.1">
<path fill-rule="evenodd" clip-rule="evenodd" d="M52.73 77.1798C53.4405 71.5779 52.7481 64.128 50.6695 55.0308C48.9719 47.5878 46.6469 40.4397 44.9963 35.7485C42.4755 28.6817 39.8364 23.5604 35.1511 21.5399C33.3252 20.7556 31.3015 20.4803 28.9616 20.7018C28.5926 20.7367 28.2165 20.7845 27.8331 20.8452C28.2635 19.0557 28.5831 17.0168 28.7668 14.8742C29.0783 11.1388 28.8686 7.56999 28.1754 4.82493C27.83 3.45088 27.374 2.3427 26.8289 1.54085C26.1787 0.588396 25.4121 0.0720133 24.5419 0.00625146C23.6388 -0.0605442 22.2718 0.376532 20.8911 2.82541C20.1466 4.14934 19.4998 5.87009 18.9885 7.86407C18.5345 7.21956 18.072 6.61297 17.6026 6.05117C16.4832 4.70794 14.7885 2.98748 13.0872 2.40632L13.0598 2.39697C12.2415 2.12186 11.4999 2.14078 10.8675 2.45323C10.2291 2.75347 9.75406 3.3211 9.45736 4.13191C8.8394 5.82933 9.13124 8.24119 9.4848 9.96493C9.63268 10.6837 9.82073 11.4263 10.0407 12.1836C8.16074 11.3388 6.41161 10.7732 4.91053 10.5319C2.1355 10.0847 0.942135 10.8858 0.431171 11.6325C-0.0584424 12.3482 -0.129563 13.2704 0.209135 14.373C0.495365 15.3034 1.07849 16.3465 1.93834 17.4763C3.65598 19.7237 6.32207 22.112 9.43702 24.1992C11.2239 25.3899 13.0145 26.4058 14.6832 27.185C14.3986 27.4464 14.1278 27.7087 13.8722 27.9749C12.2393 29.6669 11.1944 31.4216 10.6731 33.3395C9.33597 38.2635 11.6992 43.5178 15.6644 49.8882C16.7831 51.6738 18.1728 53.8273 19.7634 56.1716C19.7775 56.193 19.7909 56.2167 19.8081 56.2366C21.964 59.4088 24.4865 62.9216 27.2136 66.3357C27.3969 66.5653 27.5809 66.7925 27.7627 67.019C27.8042 67.0893 27.8536 67.152 27.9131 67.2042C33.4692 74.0379 38.6272 78.9285 43.2548 81.7405C44.0738 82.2467 44.8223 82.5949 45.4989 82.8255C47.3731 83.4644 48.7173 83.1981 49.5959 82.7821C50.7847 82.2052 52.2957 80.7675 52.7316 77.179L52.73 77.1798Z" fill="#816DDB"/>
</g>
</svg>
