<svg width="40" height="44" viewBox="0 0 40 44" fill="none" xmlns="http://www.w3.org/2000/svg">
<path d="M37.6737 10.9466C35.7136 8.28713 33.1245 5.97719 30.2699 4.31592C23.0664 0.124035 10.012 -3.46877 5.2503 5.92945C3.64364 9.10654 3.65792 12.4807 4.22508 15.8919C4.76295 19.1784 4.26738 20.7991 2.71418 23.7477C-0.613099 30.0427 -2.15096 38.8756 5.72603 42.7654C8.89336 44.3305 12.6029 44.062 15.4112 41.8685C17.5386 40.2071 17.3286 39.5366 19.8812 38.7146C25.3138 36.962 30.6702 36.0436 34.5578 31.3656C39.148 25.8293 42.4144 17.3526 37.6894 10.9534L37.6737 10.9466Z" fill="#B3CC57"/>
</svg>
