<svg width="20" height="18" viewBox="0 0 20 18" fill="none" xmlns="http://www.w3.org/2000/svg">
<path d="M18.1766 1.87955C17.1163 0.816487 15.7108 0.167654 14.214 0.0502545C12.7171 -0.0671455 11.2276 0.354628 10.0145 1.23939C8.74188 0.292784 7.15781 -0.136452 5.58134 0.0381187C4.00486 0.212689 2.55309 0.978099 1.51835 2.18021C0.483624 3.38233 -0.057198 4.93185 0.00479663 6.51675C0.0667912 8.10164 0.726997 9.60419 1.85247 10.7218L8.06405 16.9434C8.5842 17.4553 9.28475 17.7422 10.0145 17.7422C10.7443 17.7422 11.4449 17.4553 11.965 16.9434L18.1766 10.7218C19.3445 9.54677 20 7.95737 20 6.30068C20 4.64398 19.3445 3.05458 18.1766 1.87955ZM16.7663 9.34145L10.5547 15.553C10.484 15.6244 10.3999 15.6811 10.3072 15.7197C10.2145 15.7584 10.115 15.7783 10.0145 15.7783C9.9141 15.7783 9.81464 15.7584 9.72193 15.7197C9.62922 15.6811 9.54509 15.6244 9.47441 15.553L3.26283 9.31144C2.47838 8.50959 2.03912 7.43243 2.03912 6.31068C2.03912 5.18893 2.47838 4.11177 3.26283 3.30991C4.06218 2.5207 5.14028 2.07817 6.26359 2.07817C7.3869 2.07817 8.465 2.5207 9.26436 3.30991C9.35734 3.40367 9.46797 3.47808 9.58986 3.52886C9.71175 3.57964 9.84249 3.60579 9.97454 3.60579C10.1066 3.60579 10.2373 3.57964 10.3592 3.52886C10.4811 3.47808 10.5917 3.40367 10.6847 3.30991C11.4841 2.5207 12.5622 2.07817 13.6855 2.07817C14.8088 2.07817 15.8869 2.5207 16.6862 3.30991C17.4815 4.10127 17.9352 5.17258 17.9501 6.29436C17.9651 7.41614 17.5401 8.49917 16.7663 9.31144V9.34145Z" fill="#808089"/>
</svg>
