<svg width="22" height="60" viewBox="0 0 22 60" fill="none" xmlns="http://www.w3.org/2000/svg">
<path fill-rule="evenodd" clip-rule="evenodd" d="M14.4656 57.5205C16.4915 54.333 18.2133 49.6156 19.5836 43.4949C20.7065 38.488 21.3723 33.4765 21.7353 30.1511C22.2616 25.1316 22.1607 21.2567 19.9568 18.6632C19.097 17.6543 17.974 16.8962 16.521 16.3467C16.2919 16.2601 16.0548 16.1791 15.8098 16.1039C16.5777 15.1451 17.3513 14.0028 18.0738 12.7579C19.3284 10.5851 20.2256 8.36092 20.5999 6.49472C20.7882 5.56105 20.8347 4.7562 20.7405 4.11095C20.6271 3.34373 20.3197 2.80678 19.8218 2.51266C19.3045 2.20828 18.3676 2.07375 16.8465 3.15448C16.0253 3.73931 15.1485 4.59318 14.274 5.65225C14.1889 5.12898 14.0879 4.62624 13.97 4.14857C13.6898 3.00742 13.176 1.46955 12.332 0.62024L12.3184 0.60656C11.9112 0.200716 11.4654 -0.00448568 11.0004 7.43617e-05C10.5353 -0.00448568 10.0907 0.200716 9.68234 0.60542C8.82935 1.45359 8.31211 3.00058 8.02854 4.14857C7.91057 4.62738 7.80962 5.1324 7.72342 5.65567C6.84888 4.59432 5.97207 3.74045 5.14971 3.15563C3.62976 2.07375 2.6917 2.21056 2.17446 2.5138C1.67878 2.8045 1.37252 3.34259 1.25795 4.10981C1.16154 4.75734 1.20918 5.55991 1.39634 6.49586C1.77292 8.35978 2.67241 10.5862 3.92467 12.7614C4.64495 14.0051 5.4174 15.144 6.18532 16.1039C5.94144 16.1791 5.70551 16.2589 5.47752 16.3456C4.02336 16.8939 2.90041 17.652 2.04175 18.6621C-0.16218 21.2556 -0.263132 25.1305 0.267717 30.1499C0.420846 31.559 0.629556 33.2702 0.90292 35.1557C0.905189 35.1728 0.906323 35.1911 0.91086 35.2082C1.28291 37.7607 1.77519 40.6267 2.4172 43.4926C2.4603 43.6853 2.50454 43.8768 2.54764 44.0672C2.55218 44.1219 2.56352 44.1744 2.58394 44.2234C3.92694 49.9884 5.58981 54.4595 7.53286 57.5159C7.87428 58.062 8.2191 58.4918 8.55485 58.8292C9.48497 59.764 10.3595 59.9954 11.0004 60C11.8715 59.9977 13.1805 59.5679 14.4668 57.5205H14.4656Z" fill="white"/>
</svg>
