<svg width="77" height="77" viewBox="0 0 77 77" fill="none" xmlns="http://www.w3.org/2000/svg">
<g style="mix-blend-mode:multiply" opacity="0.12">
<path d="M41.9714 1.00106C50.5879 -1.38216 59.825 0.546709 66.7674 6.17898C73.7101 11.8112 77.5022 20.4519 76.9469 29.3742C76.3915 38.2965 71.5579 46.4009 63.9707 51.1289C46.7023 60.7434 20.3989 75.3642 19.1977 75.9294C14.8534 77.5391 9.99788 76.9357 6.17975 74.3126C2.36142 71.689 0.0570014 67.3733 0.000757806 62.741C-0.0547188 58.1086 2.14544 53.738 5.89956 51.0239C6.00091 50.962 6.09306 50.8844 6.17096 50.7947C14.8551 41.1486 21.3153 29.7148 25.0979 17.2984C27.4687 9.86535 33.2022 3.9846 40.5725 1.42466C40.9582 1.26001 41.4434 1.07501 41.9705 0.999788L41.9714 1.00106ZM48.2574 27.1813C48.8908 28.8426 50.1584 30.1845 51.7811 30.912C53.4043 31.6386 55.2494 31.6911 56.9107 31.0577C58.572 30.4244 59.9139 29.1568 60.6414 27.5341C61.368 25.9109 61.4205 24.0657 60.7872 22.4045C60.1538 20.7432 58.8862 19.4012 57.2635 18.6738C55.6403 17.9472 53.7951 17.8947 52.1339 18.528C50.4726 19.1613 49.1306 20.4289 48.4032 22.0517C47.6766 23.6748 47.6241 25.52 48.2574 27.1813Z" fill="#816DDB"/>
</g>
</svg>
