<svg width="126" height="75" viewBox="0 0 126 75" fill="none" xmlns="http://www.w3.org/2000/svg">
<path d="M93.2775 0.815541C92.3123 0.519669 91.3455 0.292283 90.4034 0.128781C84.3836 -0.924773 78.2091 4.66253 82.913 10.5405C89.5735 18.8876 85.6266 28.4243 77.8242 31.7854C79.2013 24.0183 77.1627 15.8223 71.839 9.43834C67.0142 3.64952 57.1898 9.735 60.6264 16.6379C63.7695 22.9509 62.5966 32.7553 55.5728 35.9674C54.7997 29.0106 53.8845 22.2557 50.2125 16.1165C50.1768 16.0681 50.1544 16.0175 50.1187 15.9691C49.8148 15.4765 49.511 14.9838 49.1807 14.4958C47.288 11.6883 44.0179 11.5477 41.3653 12.8407C38.4733 13.698 36.2557 16.2382 37.2056 20.0551C39.4105 28.9722 39.275 42.1555 27.3031 43.105C27.9472 40.4565 28.7284 37.8115 28.9898 35.0796C29.5156 29.7106 26.5367 19.7143 21.1875 17.2623C12.6407 13.3615 4.99391 32.0509 2.741 37.761C-1.67387 48.92 -1.45996 61.5244 8.64733 69.3813C15.8053 74.9418 25.0221 75.1668 33.6451 74.1722C46.6403 72.6767 59.4129 69.3516 71.9783 65.7761C85.2206 62.0147 98.876 59.218 111.721 54.1893C118.041 51.7133 123.12 48.1436 125.081 41.3797C129.123 27.4491 119.171 15.6239 108.201 8.44892C103.907 5.63612 98.5036 2.40255 93.2665 0.83108L93.2775 0.815541Z" fill="#E3B083"/>
</svg>
