<svg width="74" height="76" viewBox="0 0 74 76" fill="none" xmlns="http://www.w3.org/2000/svg">
<g style="mix-blend-mode:multiply" opacity="0.12">
<path d="M51.7313 75.9997C55.7921 75.9997 59.7223 75.4775 63.5208 74.4323C70.9883 72.3418 73.7388 66.9852 73.8693 66.7247C74 66.5943 74 66.4631 74 66.2025V62.283C74 61.8911 73.7377 61.4993 73.4764 61.3681C73.2141 61.2377 68.1052 58.7555 59.5907 56.7951L58.019 56.4033C50.028 54.5743 40.203 52.3536 32.3431 43.6006C23.9591 34.064 23.0416 28.1853 22.5181 23.7428C22.3874 23.2206 22.3874 22.6976 22.2558 22.1754C21.47 17.0804 19.2431 14.8597 17.8021 13.2922C16.8846 12.3773 16.4917 11.8551 16.4917 11.333C16.4917 7.15195 19.3737 3.62532 19.5045 3.62532C19.7667 3.36378 19.7667 2.97193 19.7667 2.71039C19.7667 2.44885 19.5045 2.05699 19.1115 1.92668L14.5261 0.0977347C14.2638 -0.0325782 13.8709 -0.0325782 13.6086 0.0977347C13.3464 0.228048 13.085 0.489591 13.085 0.751132C12.0369 5.45424 10.7275 9.11221 10.0723 9.89583C9.28643 10.6795 8.50057 11.2026 7.58306 11.8551C5.87979 13.0306 4.04585 14.2062 2.21185 17.8651C-0.932373 24.0052 -2.76636 41.7725 11.3816 57.1883C22.2564 69.3375 37.1908 76 51.7318 76L51.7313 75.9997Z" fill="#816DDB"/>
</g>
</svg>
