<svg width="168" height="264" viewBox="0 0 168 264" fill="none" xmlns="http://www.w3.org/2000/svg">
<g style="mix-blend-mode:multiply" opacity="0.06">
<path fill-rule="evenodd" clip-rule="evenodd" d="M167.144 244.645C169.396 226.888 167.201 203.273 160.613 174.437C155.232 150.844 147.862 128.186 142.63 113.316C134.639 90.9152 126.274 74.6818 111.422 68.2773C105.635 65.791 99.22 64.9185 91.8029 65.6206C90.6333 65.7313 89.441 65.8828 88.2259 66.0751C89.5901 60.403 90.6032 53.9401 91.1854 47.1483C92.1729 35.3077 91.508 23.9954 89.3108 15.2941C88.216 10.9387 86.7707 7.42598 85.0427 4.88427C82.9817 1.86517 80.5518 0.228343 77.7934 0.0198908C74.9306 -0.191837 70.5976 1.19361 66.2212 8.95605C63.8611 13.1527 61.8108 18.6071 60.1901 24.9276C58.7511 22.8846 57.2852 20.9619 55.797 19.1811C52.2488 14.9233 46.8769 9.4698 41.4843 7.62763L41.3974 7.598C38.8034 6.72595 36.4529 6.78591 34.4482 7.77632C32.4247 8.72803 30.9188 10.5273 29.9784 13.0974C28.0196 18.4779 28.9447 26.123 30.0653 31.5869C30.5341 33.8652 31.1302 36.2192 31.8274 38.6198C25.8684 35.9417 20.324 34.1489 15.5658 33.3841C6.76955 31.9666 2.98681 34.5059 1.36716 36.8728C-0.184817 39.1415 -0.410255 42.0644 0.66335 45.5596C1.57064 48.5089 3.41904 51.8153 6.14458 55.3965C11.5892 62.5202 20.0401 70.0906 29.9139 76.7066C35.5781 80.4809 41.2537 83.7011 46.5434 86.1712C45.6411 86.9998 44.7826 87.8311 43.9725 88.6748C38.7966 94.0382 35.4843 99.6002 33.8321 105.679C29.5936 121.288 37.0845 137.943 49.6535 158.136C53.1997 163.796 57.6046 170.622 62.6465 178.053C62.6913 178.121 62.7335 178.196 62.7882 178.259C69.6219 188.314 77.6178 199.449 86.2622 210.271C86.843 210.999 87.4265 211.719 88.0027 212.437C88.1343 212.66 88.2907 212.859 88.4794 213.024C106.091 234.685 122.441 250.188 137.11 259.101C139.705 260.706 142.078 261.809 144.223 262.54C150.164 264.565 154.425 263.722 157.21 262.403C160.978 260.574 165.767 256.017 167.149 244.642L167.144 244.645Z" fill="#816DDB"/>
</g>
</svg>
