<svg width="45" height="87" viewBox="0 0 45 87" fill="none" xmlns="http://www.w3.org/2000/svg">
<g style="mix-blend-mode:multiply" opacity="0.1">
<path d="M39.3877 11.318L41.4144 11.7205C42.1989 11.9125 43.0699 11.3749 43.2649 10.5781L44.327 6.23937C44.522 5.44263 43.9979 4.56347 43.2134 4.37143L25.5148 0.0390333C24.7303 -0.153009 23.8594 0.384662 23.6643 1.18139L22.6023 5.52014C22.4072 6.31689 22.9314 7.19605 23.7159 7.38808L25.6123 7.94593C23.8983 13.439 20.6798 18.2817 16.2829 21.8978L14.6723 23.1925C12.7579 25.3516 11.4755 27.9468 10.7818 30.7805L0.204752 73.9894C-0.705568 77.7082 1.49992 81.5329 5.24918 82.4507L23.0349 86.8044C26.6966 87.7008 30.4852 85.4375 31.4172 81.6298L41.9076 38.7751C42.6445 35.7648 42.6838 32.5838 42.0483 29.5184L40.6493 26.1725C38.6388 21.5515 38.2395 16.3863 39.3879 11.3177L39.3877 11.318Z" fill="#816DDB"/>
</g>
</svg>
