<svg width="329" height="138" viewBox="0 0 329 138" fill="none" xmlns="http://www.w3.org/2000/svg">
<path d="M128.367 56.8241V105.397C128.367 109 126.287 110.972 122.707 110.972H116.014C112.434 110.972 110.474 109 110.474 105.397V101.56C107.473 108.296 101.234 112.247 92.3468 112.247C76.5268 112.247 70.7535 99.6948 70.7535 85.6392V56.8241C70.7535 53.2214 72.7137 51.2488 76.2936 51.2488H83.1069C86.6869 51.2488 88.6471 53.2214 88.6471 56.8241V84.3643C88.6471 92.7304 91.8804 97.7285 98.0004 97.7285C104.007 97.7285 110.474 92.8446 110.474 81.694V56.8304C110.474 53.2278 112.434 51.2552 116.014 51.2552H122.707C126.287 51.2488 128.367 53.2214 128.367 56.8241ZM324.131 51.2488H316.625C313.505 51.2488 311.312 52.6442 310.158 55.7775L297.918 88.1954L285.792 55.7775C284.752 52.6379 282.558 51.2488 279.325 51.2488H271.472C267.312 51.2488 265.465 54.0396 267.198 57.8707L289.138 106.906L279.438 130.495C277.825 134.333 279.552 137.003 283.712 137.003H289.485C292.605 137.003 294.685 135.722 295.952 132.702L328.398 57.8707C330.018 53.9191 328.291 51.2488 324.131 51.2488ZM256.534 110.972C260.114 110.972 262.194 109 262.194 105.397V76.5818C262.194 62.5199 256.421 49.9739 240.487 49.9739C231.714 49.9739 225.361 53.9255 222.474 60.782V56.8304C222.474 53.2278 220.514 51.2552 216.934 51.2552H210.12C206.54 51.2552 204.58 53.2278 204.58 56.8304V105.403C204.58 109.006 206.547 110.979 210.12 110.979H225.159C224.598 108.353 224.15 105.746 223.81 103.405C223.804 103.386 223.804 103.367 223.804 103.355C223.526 101.426 223.312 99.6758 223.155 98.236C222.613 93.1047 222.713 89.1468 224.964 86.4955C225.84 85.4616 226.987 84.6878 228.468 84.1297C228.701 84.0409 228.941 83.9584 229.193 83.8823C228.411 82.8992 227.623 81.7384 226.886 80.4699C225.606 78.2499 224.693 75.9729 224.308 74.07C224.138 73.2138 224.1 72.4844 224.157 71.8628C224.163 71.793 224.157 71.7042 224.163 71.6344C224.277 70.8479 224.592 70.3025 225.096 70.0043C225.14 69.979 225.19 69.9536 225.241 69.9346C225.789 69.6809 226.709 69.6492 228.134 70.664C228.972 71.2602 229.867 72.1355 230.762 73.2201C230.85 72.6873 230.951 72.1672 231.071 71.6788C231.361 70.5054 231.89 68.9261 232.76 68.0571C233.176 67.6448 233.63 67.4355 234.103 67.4355C234.575 67.4292 235.029 67.6385 235.445 68.0571L235.458 68.0698C236.321 68.9388 236.844 70.5118 237.128 71.6725C237.248 72.1609 237.348 72.6746 237.437 73.2074C238.332 72.1228 239.22 71.2539 240.065 70.6576C241.433 69.6872 242.34 69.6745 242.895 69.9029C242.971 69.9346 243.04 69.9663 243.103 70.0043C243.613 70.3025 243.922 70.8543 244.042 71.6344C244.124 72.1799 244.08 72.8586 243.96 73.6007C243.935 73.7592 243.929 73.8988 243.897 74.07C243.513 75.9792 242.599 78.2499 241.319 80.4699C240.582 81.7448 239.794 82.9118 239.006 83.8886C239.258 83.9647 239.498 84.0472 239.731 84.136C241.212 84.6942 242.359 85.4743 243.235 86.5019C243.67 87.0093 243.998 87.5865 244.288 88.1954C245.479 90.7388 245.485 94.1005 245.05 98.2423C244.874 99.8724 244.622 101.902 244.288 104.135C243.96 106.285 243.55 108.619 243.046 110.985H256.534V110.972ZM63.8015 81.1105C63.8015 98.7751 51.9082 112.253 35.168 112.253C33.3339 112.253 31.5439 112.076 29.8233 111.727C-0.927988 106.818 0.0363326 61.023 0.0363326 61.023V61.0293C-0.177962 52.5998 0.540558 42.7622 2.59526 31.2882C2.75283 30.4002 2.91671 29.5058 3.09318 28.5988L3.09948 28.6115C4.63736 20.6894 7.18998 9.97651 10.5052 3.00582C12.2889 -0.74909 17.2744 -1.09794 19.077 2.59354C24.0184 12.7419 30.2266 30.9901 25.0899 52.0163C28.153 50.6336 31.5754 49.9739 35.1743 49.9739C51.9145 49.9676 63.8015 63.5664 63.8015 81.1105ZM46.4752 80.7173C46.4752 72.2116 41.3384 65.2156 32.7856 65.2156C27.2265 65.2156 22.991 68.0444 20.6653 72.4336C19.4111 74.8058 18.7052 77.622 18.6673 80.7109C18.6799 81.8399 18.7871 82.9309 18.9699 83.9774C20.2241 91.1321 25.3231 96.2126 32.7856 96.2126C41.3447 96.2126 46.4752 89.3244 46.4752 80.7173ZM190.027 110.972C193.607 110.972 195.687 109 195.687 105.397V76.5818C195.687 62.5199 189.914 49.9739 173.98 49.9739C165.207 49.9739 158.854 53.9255 155.967 60.782V56.8304C155.967 53.2278 154.007 51.2552 150.427 51.2552H143.614C140.034 51.2552 138.073 53.2278 138.073 56.8304V105.403C138.073 109.006 140.04 110.979 143.614 110.979H158.652C158.091 108.353 157.644 105.746 157.303 103.405C157.297 103.386 157.297 103.367 157.297 103.355C157.02 101.426 156.805 99.6758 156.648 98.236C156.106 93.1047 156.207 89.1468 158.457 86.4955C159.333 85.4616 160.48 84.6878 161.961 84.1297C162.194 84.0409 162.434 83.9584 162.686 83.8823C161.904 82.8992 161.116 81.7384 160.379 80.4699C159.1 78.2499 158.186 75.9729 157.801 74.07C157.631 73.2138 157.593 72.4844 157.65 71.8628C157.656 71.793 157.65 71.7042 157.656 71.6344C157.77 70.8479 158.085 70.3025 158.589 70.0043C158.633 69.979 158.684 69.9536 158.734 69.9346C159.282 69.6809 160.202 69.6492 161.627 70.664C162.465 71.2602 163.36 72.1355 164.255 73.2201C164.343 72.6873 164.444 72.1672 164.564 71.6788C164.854 70.5054 165.383 68.9261 166.253 68.0571C166.669 67.6448 167.123 67.4355 167.596 67.4355C168.068 67.4292 168.522 67.6385 168.938 68.0571L168.951 68.0698C169.814 68.9388 170.337 70.5118 170.621 71.6725C170.741 72.1609 170.842 72.6746 170.93 73.2074C171.825 72.1228 172.714 71.2539 173.558 70.6576C174.926 69.6872 175.833 69.6745 176.388 69.9029C176.464 69.9346 176.533 69.9663 176.596 70.0043C177.107 70.3025 177.415 70.8543 177.535 71.6344C177.617 72.1799 177.573 72.8586 177.453 73.6007C177.428 73.7592 177.422 73.8988 177.39 74.07C177.006 75.9792 176.092 78.2499 174.812 80.4699C174.075 81.7448 173.287 82.9118 172.499 83.8886C172.751 83.9647 172.991 84.0472 173.224 84.136C174.705 84.6942 175.852 85.4743 176.728 86.5019C177.163 87.0093 177.491 87.5865 177.781 88.1954C178.972 90.7388 178.978 94.1005 178.544 98.2423C178.367 99.8724 178.115 101.902 177.781 104.135C177.453 106.285 177.044 108.619 176.539 110.985H190.027V110.972Z" fill="white"/>
</svg>
