<svg width="48" height="39" viewBox="0 0 48 39" fill="none" xmlns="http://www.w3.org/2000/svg">
<path d="M47.1222 22.5351C42.4316 19.4239 37.5918 16.1836 34.1374 11.6947C34.2306 11.4853 34.272 11.2253 34.4656 11.0831C34.5837 10.9957 34.7213 10.9447 34.849 10.8731C35.7799 10.3502 35.9161 8.71066 35.0523 8.06507C34.7742 7.85685 34.5175 7.7006 34.9384 7.69384C36.4471 7.66334 37.0987 6.13101 36.5115 4.88793C35.8416 3.46626 34.9923 2.21429 34.0128 0.989673C33.3822 0.19992 32.0153 0.407336 31.3899 1.04775C31.3435 1.09468 31.3361 1.0823 31.2661 1.12177C31.2067 1.13086 31.1583 1.12619 31.1131 1.11482C31.0976 1.08086 31.0563 1.01189 30.9894 0.907889C30.539 0.0703588 29.2413 -0.289307 28.446 0.267798C22.8835 4.16719 17.3151 8.07257 11.4949 11.5811C8.767 13.2264 5.82852 14.8368 3.84552 17.4028C2.06118 19.7108 1.12179 22.4643 0.680507 25.3282C0.182448 28.5669 0.0535727 31.873 0.0926016 35.1508C-0.00969979 35.4856 -0.0272403 35.8538 0.0393252 36.2222C0.283187 37.5576 1.62507 38.4167 2.93658 38.3576C4.35129 38.2945 5.37188 37.1705 6.44916 36.3944C7.634 35.5372 8.88761 34.7709 10.1902 34.1026C10.6822 33.8492 11.2132 33.6974 11.6974 33.4512C12.056 33.268 12.4811 33.2683 12.8381 33.4558C12.9497 33.5139 13.0379 33.5572 13.0606 33.5628C13.3714 33.6531 13.7032 33.642 14.0189 33.5877C14.7888 33.4539 15.4609 33.016 16.1069 32.5986C17.3326 31.8058 18.5583 31.0129 19.7851 30.2219C21.4215 29.1643 23.1568 28.1796 24.7146 27.0106C25.4442 26.464 25.9792 25.7888 26.2354 24.8962C26.4187 24.2512 26.4191 23.5691 26.5845 22.9181C26.8792 21.7648 27.56 20.7431 28.45 19.9589C29.2403 19.2608 30.2532 18.7465 31.3089 18.6411C32.6619 18.5068 33.8408 19.1656 34.9781 19.8109C38.4431 21.7797 41.883 23.7949 45.3343 25.7888C47.4269 26.9961 49.0875 23.8426 47.1226 22.5397L47.1222 22.5351Z" fill="#9BDBFF"/>
<path d="M12.353 33.1625C12.4013 33.2152 12.4437 33.2499 12.4775 33.2704C12.437 33.2347 12.3981 33.1979 12.36 33.1582C12.3583 33.1593 12.3565 33.1604 12.353 33.1625Z" fill="#9BDBFF"/>
</svg>
