<svg width="24" height="34" viewBox="0 0 24 34" fill="none" xmlns="http://www.w3.org/2000/svg">
<path d="M12 24.6075C14.8286 22.3408 16.9646 20.1592 18.408 18.0625C19.8514 15.9658 20.5726 13.9967 20.5714 12.155C20.5714 10.5683 20.2783 9.2157 19.692 8.0971C19.1057 6.9785 18.3846 6.07183 17.5286 5.3771C16.6714 4.68237 15.7429 4.17917 14.7429 3.8675C13.7429 3.55583 12.8286 3.4 12 3.4C11.1714 3.4 10.2571 3.55583 9.25714 3.8675C8.25714 4.17917 7.32857 4.68237 6.47143 5.3771C5.61428 6.0707 4.89314 6.97737 4.308 8.0971C3.72286 9.21683 3.42971 10.5695 3.42857 12.155C3.42857 13.9967 4.15028 15.9658 5.59371 18.0625C7.03714 20.1592 9.17257 22.3408 12 24.6075ZM12 28.22C11.7143 28.22 11.4354 28.1775 11.1634 28.0925C10.8914 28.0075 10.6417 27.88 10.4143 27.71C8.1 25.925 5.78571 23.6793 3.47143 20.9729C1.15714 18.2665 0 15.3272 0 12.155C0 10.1433 0.364571 8.3793 1.09371 6.8629C1.82286 5.3465 2.75829 4.07887 3.9 3.06C5.04286 2.04 6.32857 1.275 7.75714 0.765C9.18571 0.255 10.6 0 12 0C13.4 0 14.8143 0.255 16.2429 0.765C17.6714 1.275 18.9571 2.04 20.1 3.06C21.2429 4.08 22.1789 5.3482 22.908 6.8646C23.6371 8.381 24.0011 10.1445 24 12.155C24 15.3283 22.8429 18.2682 20.5286 20.9746C18.2143 23.681 15.9 25.9261 13.5857 27.71C13.3571 27.88 13.1074 28.0075 12.8366 28.0925C12.5657 28.1775 12.2869 28.22 12 28.22ZM12 15.3C12.9429 15.3 13.7503 14.9674 14.4223 14.3021C15.0943 13.6368 15.4297 12.8361 15.4286 11.9C15.4286 10.965 15.0931 10.1649 14.4223 9.4996C13.7514 8.83433 12.944 8.50113 12 8.5C11.0571 8.5 10.2503 8.8332 9.57943 9.4996C8.90857 10.166 8.57257 10.9661 8.57143 11.9C8.57143 12.835 8.90743 13.6357 9.57943 14.3021C10.2514 14.9685 11.0583 15.3011 12 15.3ZM1.71429 34C1.22857 34 0.821714 33.8368 0.493714 33.5104C0.165714 33.184 0.00114286 32.7805 0 32.3C0 31.8183 0.164572 31.4149 0.493714 31.0896C0.822857 30.7643 1.22971 30.6011 1.71429 30.6H22.2857C22.7714 30.6 23.1789 30.7632 23.508 31.0896C23.8371 31.416 24.0011 31.8195 24 32.3C24 32.7817 23.8354 33.1857 23.5063 33.5121C23.1771 33.8385 22.7703 34.0011 22.2857 34H1.71429Z" fill="#AF6CDA"/>
</svg>
