<svg width="81" height="74" viewBox="0 0 81 74" fill="none" xmlns="http://www.w3.org/2000/svg">
<g style="mix-blend-mode:multiply" opacity="0.12">
<path d="M80.9971 11.5867C80.8782 16.3005 77.7083 22.6959 71.8291 30.0841C66.3707 36.9425 58.8634 44.3339 50.116 51.4598C37.6744 61.5948 28.4908 67.8659 21.2117 71.1951C17.0099 73.1178 13.3939 74.0604 10.4651 73.997C7.46023 73.9328 5.12478 72.835 3.32526 70.6403C0.614177 67.3353 -0.540154 61.8649 0.238328 56.0059C1.15153 49.1309 4.56251 42.7904 9.73289 38.2126C9.70443 41.6293 10.1832 45.5882 11.3952 50.1685C11.5727 50.8392 12.1804 51.2821 12.845 51.2821C12.9714 51.2821 13.1003 51.2662 13.2283 51.2329C14.0294 51.0227 14.5073 50.2052 14.2964 49.4069C10.6896 35.7685 13.99 28.3395 17.3943 24.5077C20.821 20.6513 25.2339 19.3594 27.9542 19.3442C26.5614 24.828 26.5581 31.5337 27.9484 39.3097C28.0773 40.0338 28.7101 40.5426 29.4232 40.5426C29.5111 40.5426 29.599 40.5351 29.6877 40.5192C30.5038 40.3749 31.0471 39.5983 30.9014 38.785C29.4734 30.7955 29.5806 24.0723 31.2203 18.8003C32.5345 14.5771 34.7785 11.4055 37.8907 9.37599C40.5315 7.65346 43.1138 7.21044 44.813 7.14211C46.3841 7.07954 47.8858 7.31811 49.0309 7.79441C48.1546 10.9183 47.9034 14.6812 48.2876 19.0204C48.3604 19.8429 49.0878 20.451 49.9131 20.3793C50.7385 20.3067 51.3486 19.581 51.2758 18.7585C50.479 9.74204 52.6486 3.69192 57.5502 1.26286C64.0639 -1.96443 74.1644 1.55732 78.5379 5.50363C80.2563 7.05598 81.0615 9.04461 80.9963 11.5854L80.9971 11.5867Z" fill="#816DDB"/>
</g>
</svg>
