<svg width="120" height="46" viewBox="0 0 120 46" fill="none" xmlns="http://www.w3.org/2000/svg">
<path d="M43.7997 19.0792V35.388C43.7997 36.5976 43.09 37.26 41.8685 37.26H39.5846C38.3631 37.26 37.6943 36.5976 37.6943 35.388V34.0996C36.6706 36.3612 34.5416 37.688 31.5093 37.688C26.1114 37.688 24.1415 33.4735 24.1415 28.7542V19.0792C24.1415 17.8696 24.8104 17.2073 26.0319 17.2073H28.3566C29.5781 17.2073 30.2469 17.8696 30.2469 19.0792V28.3261C30.2469 31.1351 31.3502 32.8133 33.4383 32.8133C35.4878 32.8133 37.6943 31.1735 37.6943 27.4295V19.0814C37.6943 17.8717 38.3631 17.2094 39.5846 17.2094H41.8685C43.09 17.2073 43.7997 17.8696 43.7997 19.0792ZM110.596 17.2073H108.034C106.97 17.2073 106.221 17.6758 105.828 18.7278L101.652 29.6124L97.5139 18.7278C97.159 17.6737 96.4107 17.2073 95.3074 17.2073H92.6278C91.2085 17.2073 90.5784 18.1443 91.1698 19.4306L98.6558 35.8949L95.3461 43.815C94.7956 45.1034 95.3848 46 96.8042 46H98.7741C99.8386 46 100.548 45.5698 100.981 44.5561L112.052 19.4306C112.604 18.1039 112.015 17.2073 110.596 17.2073ZM87.531 37.26C88.7526 37.26 89.4622 36.5976 89.4622 35.388V25.7131C89.4622 20.9916 87.4923 16.7792 82.0558 16.7792C79.0622 16.7792 76.8944 18.106 75.9095 20.4081V19.0814C75.9095 17.8717 75.2407 17.2094 74.0192 17.2094H71.6944C70.4729 17.2094 69.8041 17.8717 69.8041 19.0814V35.3901C69.8041 36.5998 70.4751 37.2621 71.6944 37.2621H76.8256C76.6342 36.3804 76.4815 35.5051 76.3654 34.7193C76.3633 34.7129 76.3633 34.7065 76.3633 34.7023C76.2686 34.0549 76.1955 33.4671 76.1418 32.9836C75.9568 31.2608 75.9912 29.9319 76.759 29.0417C77.0579 28.6945 77.4493 28.4347 77.9547 28.2473C78.0342 28.2175 78.116 28.1898 78.202 28.1643C77.9353 27.8342 77.6665 27.4444 77.4149 27.0185C76.9783 26.2731 76.6665 25.5086 76.5353 24.8697C76.4772 24.5822 76.4643 24.3373 76.4837 24.1286C76.4858 24.1052 76.4837 24.0754 76.4858 24.0519C76.5246 23.7879 76.6321 23.6047 76.8041 23.5046C76.8192 23.4961 76.8364 23.4876 76.8536 23.4812C77.0407 23.396 77.3547 23.3854 77.8407 23.7261C78.1267 23.9263 78.4321 24.2202 78.7375 24.5843C78.7676 24.4055 78.802 24.2308 78.8428 24.0668C78.9418 23.6729 79.1224 23.1426 79.4192 22.8508C79.5611 22.7124 79.716 22.6421 79.8773 22.6421C80.0385 22.64 80.1934 22.7103 80.3353 22.8508L80.3396 22.8551C80.6342 23.1468 80.8127 23.675 80.9095 24.0647C80.9504 24.2287 80.9848 24.4012 81.0149 24.5801C81.3203 24.2159 81.6235 23.9242 81.9117 23.724C82.3783 23.3981 82.688 23.3939 82.8773 23.4705C82.9031 23.4812 82.9267 23.4918 82.9482 23.5046C83.1224 23.6047 83.2278 23.79 83.2687 24.0519C83.2966 24.2351 83.2816 24.463 83.2407 24.7121C83.2321 24.7654 83.23 24.8122 83.2192 24.8697C83.088 25.5107 82.7762 26.2731 82.3396 27.0185C82.088 27.4466 81.8192 27.8384 81.5504 28.1664C81.6364 28.192 81.7181 28.2196 81.7977 28.2495C82.3031 28.4369 82.6945 28.6988 82.9934 29.0438C83.1418 29.2142 83.2536 29.408 83.3525 29.6124C83.759 30.4664 83.7611 31.5951 83.6127 32.9858C83.5525 33.5331 83.4665 34.2146 83.3525 34.9642C83.2407 35.6862 83.1009 36.4699 82.9289 37.2642H87.531V37.26ZM21.7695 27.2336C21.7695 33.1647 17.7114 37.6901 11.9995 37.6901C11.3737 37.6901 10.763 37.6305 10.1759 37.5134C-0.316635 35.865 0.0123969 20.489 0.0123969 20.489V20.4912C-0.0607217 17.6609 0.184442 14.3578 0.88552 10.5053C0.939284 10.2071 0.995198 9.90687 1.05541 9.60233L1.05756 9.60659C1.5823 6.94667 2.45327 3.34971 3.58446 1.00923C4.19306 -0.251514 5.89414 -0.368644 6.5092 0.870806C8.19523 4.27823 10.3135 10.4052 8.56082 17.465C9.60599 17.0007 10.7737 16.7792 12.0017 16.7792C17.7135 16.7771 21.7695 21.343 21.7695 27.2336ZM15.8576 27.1016C15.8576 24.2457 14.1049 21.8967 11.1866 21.8967C9.28986 21.8967 7.84469 22.8466 7.05114 24.3203C6.62318 25.1168 6.38232 26.0623 6.36941 27.0994C6.37372 27.4785 6.41027 27.8448 6.47264 28.1962C6.9006 30.5984 8.64039 32.3043 11.1866 32.3043C14.1071 32.3043 15.8576 29.9915 15.8576 27.1016ZM64.8385 37.26C66.06 37.26 66.7697 36.5976 66.7697 35.388V25.7131C66.7697 20.9916 64.7998 16.7792 59.3632 16.7792C56.3696 16.7792 54.2019 18.106 53.2169 20.4081V19.0814C53.2169 17.8717 52.5481 17.2094 51.3266 17.2094H49.0019C47.7803 17.2094 47.1115 17.8717 47.1115 19.0814V35.3901C47.1115 36.5998 47.7825 37.2621 49.0019 37.2621H54.1331C53.9417 36.3804 53.789 35.5051 53.6728 34.7193C53.6707 34.7129 53.6707 34.7065 53.6707 34.7023C53.5761 34.0549 53.5029 33.4671 53.4492 32.9836C53.2642 31.2608 53.2986 29.9319 54.0664 29.0417C54.3653 28.6945 54.7567 28.4347 55.2621 28.2473C55.3417 28.2175 55.4234 28.1898 55.5094 28.1643C55.2427 27.8342 54.9739 27.4444 54.7223 27.0185C54.2857 26.2731 53.9739 25.5086 53.8427 24.8697C53.7847 24.5822 53.7718 24.3373 53.7911 24.1286C53.7933 24.1052 53.7911 24.0754 53.7933 24.0519C53.832 23.7879 53.9395 23.6047 54.1115 23.5046C54.1266 23.4961 54.1438 23.4876 54.161 23.4812C54.3481 23.396 54.6621 23.3854 55.1481 23.7261C55.4341 23.9263 55.7395 24.2202 56.0449 24.5843C56.075 24.4055 56.1094 24.2308 56.1503 24.0668C56.2492 23.6729 56.4298 23.1426 56.7266 22.8508C56.8686 22.7124 57.0234 22.6421 57.1847 22.6421C57.346 22.64 57.5008 22.7103 57.6428 22.8508L57.647 22.8551C57.9417 23.1468 58.1202 23.675 58.2169 24.0647C58.2578 24.2287 58.2922 24.4012 58.3223 24.5801C58.6277 24.2159 58.9309 23.9242 59.2191 23.724C59.6858 23.3981 59.9954 23.3939 60.1847 23.4705C60.2105 23.4812 60.2342 23.4918 60.2557 23.5046C60.4299 23.6047 60.5352 23.79 60.5761 24.0519C60.604 24.2351 60.589 24.463 60.5481 24.7121C60.5395 24.7654 60.5374 24.8122 60.5266 24.8697C60.3955 25.5107 60.0836 26.2731 59.6471 27.0185C59.3954 27.4466 59.1266 27.8384 58.8578 28.1664C58.9438 28.192 59.0256 28.2196 59.1051 28.2495C59.6105 28.4369 60.0019 28.6988 60.3008 29.0438C60.4492 29.2142 60.561 29.408 60.66 29.6124C61.0664 30.4664 61.0686 31.5951 60.9202 32.9858C60.86 33.5331 60.7739 34.2146 60.66 34.9642C60.5481 35.6862 60.4084 36.4699 60.2363 37.2642H64.8385V37.26ZM114.194 20.0823C114.194 19.6755 114.271 19.2943 114.424 18.9429C114.576 18.5894 114.787 18.287 115.052 18.0314C115.316 17.7759 115.626 17.5757 115.976 17.4288C116.327 17.2818 116.701 17.2094 117.097 17.2094C117.492 17.2094 117.865 17.2818 118.217 17.4288C118.568 17.5757 118.877 17.7759 119.142 18.0314C119.406 18.287 119.617 18.5915 119.77 18.9429C119.923 19.2964 120 19.6755 120 20.0823C120 20.4954 119.923 20.8766 119.77 21.2259C119.617 21.5773 119.406 21.8797 119.142 22.1331C118.877 22.3887 118.568 22.5889 118.217 22.7358C117.867 22.8828 117.492 22.9552 117.097 22.9552C116.701 22.9552 116.329 22.8828 115.976 22.7358C115.624 22.5889 115.316 22.3887 115.052 22.1331C114.787 21.8776 114.576 21.5752 114.424 21.2259C114.271 20.8766 114.194 20.4954 114.194 20.0823ZM114.71 20.0823C114.71 20.4337 114.772 20.7574 114.897 21.0555C115.021 21.3537 115.191 21.6135 115.404 21.8328C115.617 22.0522 115.869 22.2247 116.161 22.3503C116.452 22.476 116.766 22.5399 117.097 22.5399C117.43 22.5399 117.74 22.476 118.03 22.3503C118.318 22.2247 118.572 22.0522 118.787 21.8328C119.002 21.6135 119.174 21.3558 119.299 21.0555C119.424 20.7574 119.486 20.4315 119.486 20.0823C119.486 19.7373 119.424 19.4136 119.299 19.1133C119.174 18.8109 119.004 18.5511 118.787 18.3317C118.572 18.1124 118.318 17.9399 118.03 17.8142C117.742 17.6886 117.43 17.6247 117.097 17.6247C116.763 17.6247 116.452 17.6886 116.161 17.8142C115.869 17.9399 115.617 18.1124 115.404 18.3317C115.191 18.5511 115.021 18.8109 114.897 19.1133C114.772 19.4136 114.71 19.7373 114.71 20.0823ZM115.989 18.3977H117.269C118.06 18.3977 118.456 18.7172 118.456 19.3561C118.456 19.6606 118.37 19.8821 118.198 20.0248C118.026 20.1675 117.813 20.2505 117.557 20.2761L118.533 21.7604H117.978L117.058 20.3144H116.503V21.7604H115.987V18.3977H115.989ZM116.503 19.897H117.034C117.148 19.897 117.26 19.8927 117.37 19.8864C117.48 19.8778 117.576 19.8565 117.658 19.8203C117.742 19.7841 117.809 19.7266 117.86 19.65C117.912 19.5733 117.938 19.4668 117.938 19.3327C117.938 19.2198 117.914 19.1282 117.867 19.0579C117.819 18.9877 117.759 18.9365 117.688 18.9003C117.615 18.8641 117.535 18.8407 117.447 18.8301C117.359 18.8194 117.271 18.8152 117.183 18.8152H116.503V19.897Z" fill="white"/>
</svg>
