<svg width="40" height="80" viewBox="0 0 40 80" fill="none" xmlns="http://www.w3.org/2000/svg">
<path d="M21.9743 47.2133C24.497 47.8051 29.8782 48.734 33.914 46.2838C37.9498 43.9179 39.379 38.9326 39.9679 36.4819C40.1362 35.6366 39.6318 34.8762 38.7069 34.6229C36.1843 34.0311 30.803 33.1022 26.7673 35.5524C23.9086 37.2422 22.3109 40.3691 21.4699 42.9036L21.4694 31.4967C21.6377 31.5809 21.8054 31.6658 21.9738 31.7501C24.4964 32.3419 29.8776 33.2708 33.9134 30.8206C37.9492 28.3704 39.3784 23.4694 39.9673 21.0186C40.1356 20.1734 39.6312 19.413 38.7063 19.1597C36.1837 18.5679 30.8025 17.639 26.7667 20.0892C23.908 21.779 22.3103 24.9059 21.4694 27.4404V21.3565C23.4031 19.4132 26.7667 15.526 26.7667 10.9634C26.7667 6.40079 23.4875 2.51357 21.4694 0.570261C20.7128 -0.190087 19.3673 -0.190087 18.6107 0.570261C16.593 2.42922 13.2295 6.31584 13.2295 10.879C13.2295 15.3574 16.5087 19.3289 18.5268 21.2722V27.356C17.6857 24.8209 16.0887 21.779 13.2295 20.0048C9.19368 17.6389 3.81242 18.4842 1.28981 19.0753C0.448752 19.2445 -0.139506 20.0891 0.0288232 20.9343C0.533225 23.3844 2.04694 28.3703 6.08273 30.7362C10.1185 33.1022 15.4998 32.2569 18.0224 31.6658C18.1907 31.5815 18.3585 31.4966 18.5268 31.4123L18.5268 42.8199C17.6857 40.2848 16.0887 37.2428 13.2295 35.4687C9.19368 33.1027 3.81242 33.948 1.28981 34.5392C0.448752 34.7083 -0.139506 35.553 0.0288232 36.3981C0.533225 38.8483 2.04694 43.8341 6.08273 46.2001C10.1185 48.566 15.4998 47.7207 18.0224 47.1296C18.1907 47.0453 18.3585 46.9604 18.5268 46.8761V58.2837C17.6857 55.7486 16.0887 52.7067 13.2295 50.9325C9.19368 48.5665 3.81242 49.4118 1.28981 50.003C0.448752 50.1721 -0.139506 51.0168 0.0288232 51.8619C0.533225 54.3121 2.04694 59.2979 6.08273 61.6639C10.1185 64.0298 15.4998 63.1846 18.0224 62.5934C18.1907 62.5091 18.3585 62.4242 18.5268 62.34V78.5636C18.5268 79.324 19.1995 80 19.9561 80C20.7127 80 21.3854 79.3239 21.3854 78.5636V62.5074C21.5538 62.5917 21.7215 62.6766 21.8898 62.7609C24.4124 63.3527 29.7937 64.2815 33.8295 61.8314C37.8653 59.4654 39.2945 54.4802 39.8834 52.0294C40.0517 51.1842 39.5473 50.4238 38.6224 50.1705C36.0998 49.5787 30.7185 48.6498 26.6827 51.1C23.8241 52.7898 22.2264 55.9167 21.3854 58.4512V46.96C21.5538 47.1286 21.7221 47.2135 21.9743 47.2135L21.9743 47.2133Z" fill="white"/>
</svg>
