<svg width="62" height="75" viewBox="0 0 62 75" fill="none" xmlns="http://www.w3.org/2000/svg">
<path d="M59.5189 49.5569C59.191 49.056 58.8698 48.5701 58.5979 48.1074C56.2189 44.1283 53.919 40.0996 51.5888 36.0914C47.1534 28.4631 42.7145 20.825 37.662 13.5919C35.044 9.8417 31.9325 5.97363 27.5355 4.80264C25.2186 4.18527 22.7812 4.3942 20.3941 4.22461C18.007 4.05502 15.4566 3.39107 13.9439 1.51721C13.42 0.866192 12.9 0.0122967 12.0701 7.09961e-05C11.6246 -0.00569461 11.2252 0.247427 10.8554 0.494765C8.92533 1.77759 6.99699 3.05937 5.06795 4.34396C4.4182 4.77538 3.72535 5.26122 3.48074 6.00655C3.2524 6.70397 3.47002 7.45938 3.58326 8.18648C4.38447 13.326 -0.099777 17.9475 0.00182916 23.1425C0.0565462 25.9621 1.45925 28.5652 2.82533 31.0399C9.9428 43.9292 17.0596 56.8212 24.1753 69.7114C25.2753 71.7055 26.5432 73.8499 28.6645 74.6582C30.6919 75.4319 32.955 74.7615 34.9519 73.9423C38.8221 72.3541 42.4361 70.2148 46.0351 68.0822C50.02 65.7212 54.0276 63.3467 57.5457 60.3316C59.1271 58.9756 60.7264 57.27 61.3013 55.203C61.853 53.2238 60.6517 51.2856 59.5213 49.5531L59.5189 49.5569Z" fill="#C8EBFF"/>
</svg>
