<svg width="57" height="75" viewBox="0 0 57 75" fill="none" xmlns="http://www.w3.org/2000/svg">
<g style="mix-blend-mode:multiply" opacity="0.12">
<path d="M36.1703 42.897C38.8724 41.9696 44.4438 39.6828 46.8035 35.0571C49.2118 30.5093 47.6676 25.0627 46.802 22.4516C46.471 21.5714 45.5596 21.163 44.5478 21.4694C41.8457 22.3968 36.2743 24.6836 33.9147 29.3093C32.2169 32.5435 32.5294 36.3697 33.2075 39.2057L26.6139 28.6552C26.8201 28.6348 27.0261 28.6152 27.2323 28.5948C29.9344 27.6674 35.5059 25.3805 37.8655 20.7549C40.2252 16.1292 38.7296 10.7605 37.8641 8.14939C37.533 7.26919 36.6216 6.86076 35.6099 7.16716C32.9078 8.09457 27.3363 10.3814 24.9767 15.0071C23.2789 18.2413 23.5914 22.0675 24.2695 24.9034L20.7532 19.2762C21.4391 16.3482 22.3393 10.7864 19.7022 6.56623C17.0651 2.34609 11.7505 0.667733 8.73916 0.0501227C7.59184 -0.210828 6.33308 0.575749 6.0647 1.72134C5.25146 4.62035 4.35096 10.1817 6.98839 14.4024C9.57681 18.5446 14.9401 20.3009 17.9514 20.9185L21.4678 26.5457C19.2157 24.6926 15.9634 22.8126 12.2629 22.8432C7.11966 23.0142 2.57367 26.9421 0.555252 28.9636C-0.133849 29.6118 -0.196028 30.7369 0.449942 31.4203C2.33798 33.3916 6.63588 37.1183 11.7791 36.9472C16.9224 36.7762 21.4684 32.8484 23.4868 30.8268C23.5955 30.6504 23.7034 30.4739 23.8122 30.2975L30.4055 40.8488C28.1534 38.9957 24.9011 37.1158 21.2007 37.1463C16.0574 37.3174 11.5114 41.2452 9.493 43.2668C8.8039 43.9149 8.74172 45.0401 9.38769 45.7234C11.2757 47.6948 15.5736 51.4214 20.7169 51.2504C25.8601 51.0793 30.4061 47.1515 32.4245 45.1299C32.5333 44.9536 32.6412 44.777 32.7499 44.6006L39.3433 55.152C37.0912 53.2988 33.8389 51.4189 30.1384 51.4495C24.9952 51.6205 20.4492 55.5483 18.4307 57.5699C17.7416 58.2181 17.6795 59.3432 18.3254 60.0265C20.2135 61.9979 24.5114 65.7246 29.6546 65.5535C34.7979 65.3825 39.3439 61.4546 41.3623 59.4331C41.471 59.2567 41.5789 59.0801 41.6877 58.9038L51.0646 73.9097C51.5041 74.613 52.5242 74.845 53.232 74.4027C53.9399 73.9604 54.1785 72.9417 53.7391 72.2385L44.459 57.3875C44.6652 57.367 44.8712 57.3475 45.0774 57.327C47.7795 56.3996 53.3509 54.1128 55.7105 49.4871C58.1188 44.9393 56.5746 39.4927 55.7091 36.8816C55.3781 36.0014 54.4667 35.593 53.4549 35.8994C50.7528 36.8268 45.1814 39.1136 42.8217 43.7393C41.1239 46.9735 41.4364 50.7997 42.1145 53.6357L35.4729 43.007C35.7278 43.0645 35.9344 43.0446 36.1703 42.8972L36.1703 42.897Z" fill="#816DDB"/>
</g>
</svg>
