<svg width="354" height="137" viewBox="0 0 354 137" fill="none" xmlns="http://www.w3.org/2000/svg">
<path d="M129.179 56.8229V105.395C129.179 108.997 127.086 110.97 123.483 110.97H116.747C113.145 110.97 111.172 108.997 111.172 105.395V101.557C108.153 108.293 101.874 112.245 92.9306 112.245C77.0106 112.245 71.2008 99.6927 71.2008 85.6374V56.8229C71.2008 53.2203 73.1733 51.2477 76.7759 51.2477H83.6323C87.2349 51.2477 89.2075 53.2203 89.2075 56.8229V84.3626C89.2075 92.7285 92.4613 97.7265 98.6199 97.7265C104.664 97.7265 111.172 92.8427 111.172 81.6923V56.8293C111.172 53.2266 113.145 51.2541 116.747 51.2541H123.483C127.086 51.2477 129.179 53.2203 129.179 56.8229ZM326.181 51.2477H318.626C315.487 51.2477 313.28 52.6431 312.119 55.7764L299.802 88.1935L287.598 55.7764C286.552 52.6368 284.345 51.2477 281.091 51.2477H273.188C269.002 51.2477 267.143 54.0385 268.888 57.8694L290.966 106.904L281.205 130.492C279.581 134.33 281.319 137 285.505 137H291.315C294.455 137 296.548 135.719 297.823 132.7L330.474 57.8694C332.105 53.918 330.367 51.2477 326.181 51.2477ZM258.156 110.97C261.759 110.97 263.852 108.997 263.852 105.395V76.5802C263.852 62.5186 258.042 49.9729 242.008 49.9729C233.179 49.9729 226.785 53.9243 223.88 60.7807V56.8293C223.88 53.2266 221.908 51.2541 218.305 51.2541H211.449C207.846 51.2541 205.874 53.2266 205.874 56.8293V105.401C205.874 109.004 207.853 110.976 211.449 110.976H226.582C226.018 108.35 225.568 105.744 225.225 103.403C225.219 103.384 225.219 103.365 225.219 103.352C224.94 101.424 224.724 99.6737 224.565 98.2339C224.02 93.1027 224.121 89.1449 226.386 86.4937C227.267 85.4598 228.422 84.6861 229.912 84.1279C230.147 84.0391 230.388 83.9566 230.642 83.8805C229.855 82.8974 229.062 81.7367 228.32 80.4682C227.033 78.2483 226.113 75.9713 225.726 74.0685C225.555 73.2122 225.517 72.4828 225.574 71.8613C225.58 71.7915 225.574 71.7027 225.58 71.6329C225.694 70.8464 226.012 70.301 226.519 70.0029C226.563 69.9775 226.614 69.9521 226.665 69.9331C227.217 69.6794 228.143 69.6477 229.576 70.6625C230.42 71.2587 231.32 72.134 232.221 73.2186C232.31 72.6858 232.411 72.1657 232.532 71.6773C232.823 70.5039 233.356 68.9246 234.232 68.0557C234.65 67.6434 235.107 67.4341 235.583 67.4341C236.058 67.4278 236.515 67.6371 236.934 68.0557L236.946 68.0684C237.815 68.9373 238.342 70.5103 238.627 71.671C238.747 72.1594 238.849 72.6731 238.938 73.2059C239.838 72.1213 240.733 71.2524 241.583 70.6562C242.959 69.6857 243.872 69.6731 244.43 69.9014C244.507 69.9331 244.576 69.9648 244.64 70.0029C245.154 70.301 245.464 70.8528 245.585 71.6329C245.667 72.1784 245.623 72.857 245.502 73.5991C245.477 73.7577 245.471 73.8972 245.439 74.0685C245.052 75.9776 244.132 78.2483 242.845 80.4682C242.103 81.7431 241.31 82.9101 240.517 83.8869C240.771 83.963 241.012 84.0454 241.246 84.1342C242.737 84.6924 243.891 85.4725 244.773 86.5C245.211 87.0075 245.54 87.5846 245.832 88.1935C247.031 90.7369 247.037 94.0985 246.6 98.2402C246.422 99.8703 246.168 101.9 245.832 104.133C245.502 106.283 245.09 108.617 244.583 110.983H258.156V110.97ZM64.2049 81.1088C64.2049 98.773 52.2363 112.251 35.3903 112.251C33.5446 112.251 31.7433 112.073 30.0118 111.725C-0.933854 106.815 0.0365623 61.0217 0.0365623 61.0217V61.0281C-0.179087 52.5987 0.543975 42.7613 2.61167 31.2875C2.77024 30.3995 2.93514 29.5052 3.11274 28.5982L3.11908 28.6109C4.66668 20.689 7.23544 9.9763 10.5717 3.00576C12.3666 -0.749074 17.3836 -1.09792 19.1976 2.59349C24.1702 12.7417 30.4177 30.9894 25.2485 52.0152C28.331 50.6325 31.775 49.9729 35.3967 49.9729C52.2427 49.9665 64.2049 63.5651 64.2049 81.1088ZM46.769 80.7156C46.769 72.2101 41.5998 65.2142 32.9928 65.2142C27.3986 65.2142 23.1364 68.043 20.796 72.4321C19.5338 74.8042 18.8234 77.6204 18.7854 80.7092C18.798 81.8382 18.9059 82.9291 19.0898 83.9757C20.352 91.1301 25.4832 96.2106 32.9928 96.2106C41.6061 96.2106 46.769 89.3225 46.769 80.7156ZM191.229 110.97C194.831 110.97 196.924 108.997 196.924 105.395V76.5802C196.924 62.5186 191.114 49.9729 175.08 49.9729C166.251 49.9729 159.858 53.9243 156.953 60.7807V56.8293C156.953 53.2266 154.98 51.2541 151.378 51.2541H144.521C140.919 51.2541 138.946 53.2266 138.946 56.8293V105.401C138.946 109.004 140.925 110.976 144.521 110.976H159.655C159.09 108.35 158.64 105.744 158.298 103.403C158.291 103.384 158.291 103.365 158.291 103.352C158.012 101.424 157.797 99.6737 157.638 98.2339C157.093 93.1027 157.194 89.1449 159.458 86.4937C160.34 85.4598 161.494 84.6861 162.985 84.1279C163.22 84.0391 163.461 83.9566 163.714 83.8805C162.928 82.8974 162.135 81.7367 161.393 80.4682C160.105 78.2483 159.186 75.9713 158.799 74.0685C158.627 73.2122 158.589 72.4828 158.647 71.8613C158.653 71.7915 158.647 71.7027 158.653 71.6329C158.767 70.8464 159.084 70.301 159.592 70.0029C159.636 69.9775 159.687 69.9521 159.737 69.9331C160.289 69.6794 161.215 69.6477 162.649 70.6625C163.492 71.2587 164.393 72.134 165.294 73.2186C165.382 72.6858 165.484 72.1657 165.604 71.6773C165.896 70.5039 166.429 68.9246 167.304 68.0557C167.723 67.6434 168.179 67.4341 168.655 67.4341C169.131 67.4278 169.588 67.6371 170.006 68.0557L170.019 68.0684C170.888 68.9373 171.414 70.5103 171.7 71.671C171.82 72.1594 171.922 72.6731 172.01 73.2059C172.911 72.1213 173.805 71.2524 174.655 70.6562C176.032 69.6857 176.945 69.6731 177.503 69.9014C177.579 69.9331 177.649 69.9648 177.712 70.0029C178.226 70.301 178.537 70.8528 178.657 71.6329C178.74 72.1784 178.696 72.857 178.575 73.5991C178.55 73.7577 178.543 73.8972 178.512 74.0685C178.125 75.9776 177.205 78.2483 175.917 80.4682C175.175 81.7431 174.383 82.9101 173.59 83.8869C173.843 83.963 174.084 84.0454 174.319 84.1342C175.81 84.6924 176.964 85.4725 177.846 86.5C178.283 87.0075 178.613 87.5846 178.905 88.1935C180.104 90.7369 180.11 94.0985 179.672 98.2402C179.495 99.8703 179.241 101.9 178.905 104.133C178.575 106.283 178.163 108.617 177.655 110.983H191.229V110.97ZM336.792 59.8103C336.792 58.5988 337.02 57.4635 337.47 56.417C337.921 55.3641 338.542 54.4635 339.322 53.7023C340.103 52.9412 341.016 52.345 342.05 51.9074C343.084 51.4697 344.187 51.2541 345.354 51.2541C346.521 51.2541 347.619 51.4697 348.659 51.9074C349.693 52.345 350.606 52.9412 351.386 53.7023C352.166 54.4635 352.788 55.3704 353.238 56.417C353.688 57.4699 353.917 58.5988 353.917 59.8103C353.917 61.0408 353.688 62.1761 353.238 63.2163C352.788 64.2628 352.166 65.1635 351.386 65.9182C350.606 66.6793 349.693 67.2755 348.659 67.7132C347.625 68.1508 346.521 68.3665 345.354 68.3665C344.187 68.3665 343.09 68.1508 342.05 67.7132C341.01 67.2755 340.103 66.6793 339.322 65.9182C338.542 65.1571 337.921 64.2565 337.47 63.2163C337.02 62.1761 336.792 61.0408 336.792 59.8103ZM338.314 59.8103C338.314 60.8568 338.498 61.8209 338.866 62.7089C339.234 63.5968 339.735 64.3706 340.363 65.0239C340.991 65.6772 341.733 66.191 342.595 66.5652C343.451 66.9394 344.378 67.1297 345.354 67.1297C346.337 67.1297 347.251 66.9394 348.107 66.5652C348.957 66.191 349.705 65.6772 350.34 65.0239C350.974 64.3706 351.481 63.6032 351.849 62.7089C352.217 61.8209 352.401 60.8505 352.401 59.8103C352.401 58.7828 352.217 57.8187 351.849 56.9244C351.481 56.0237 350.98 55.2499 350.34 54.5966C349.705 53.9434 348.957 53.4296 348.107 53.0554C347.257 52.6812 346.337 52.4909 345.354 52.4909C344.371 52.4909 343.451 52.6812 342.595 53.0554C341.733 53.4296 340.991 53.9434 340.363 54.5966C339.735 55.2499 339.234 56.0237 338.866 56.9244C338.498 57.8187 338.314 58.7828 338.314 59.8103ZM342.088 54.7933H345.862C348.196 54.7933 349.363 55.7447 349.363 57.6474C349.363 58.5544 349.109 59.2141 348.602 59.639C348.094 60.064 347.466 60.3114 346.712 60.3875L349.591 64.8083H347.955L345.24 60.5016H343.604V64.8083H342.081V54.7933H342.088ZM343.604 59.2585H345.17C345.507 59.2585 345.836 59.2458 346.16 59.2268C346.483 59.2014 346.769 59.138 347.01 59.0301C347.257 58.9223 347.454 58.7511 347.606 58.5227C347.758 58.2944 347.834 57.9773 347.834 57.5777C347.834 57.2415 347.764 56.9688 347.625 56.7595C347.485 56.5502 347.308 56.398 347.098 56.2901C346.883 56.1823 346.648 56.1125 346.388 56.0808C346.128 56.0491 345.868 56.0364 345.608 56.0364H343.604V59.2585Z" fill="#AF6CDA"/>
</svg>
