<svg width="25" height="25" viewBox="0 0 25 25" fill="none" xmlns="http://www.w3.org/2000/svg">
<g opacity="0.3">
<path d="M16.3805 14.0886L15.2347 12.9427C15.6861 11.7101 15.4517 10.6858 14.5316 9.86983C13.6114 9.05386 12.6132 8.84553 11.5368 9.24483L10.391 8.099C10.6861 7.90803 11.016 7.76914 11.3805 7.68233C11.7451 7.59553 12.1184 7.55212 12.5003 7.55212C13.733 7.55212 14.779 7.98181 15.6383 8.84119C16.4977 9.70056 16.9274 10.7466 16.9274 11.9792C16.9274 12.3612 16.8797 12.7388 16.7842 13.112C16.6887 13.4853 16.5541 13.8108 16.3805 14.0886ZM19.7399 17.448L18.6982 16.4063C19.5489 15.7813 20.2911 15.0825 20.9248 14.3099C21.5585 13.5374 22.0229 12.7605 22.318 11.9792C21.45 10.0521 20.1479 8.52869 18.4118 7.40889C16.6757 6.2891 14.792 5.72921 12.7607 5.72921C12.0316 5.72921 11.285 5.79865 10.5212 5.93754C9.75727 6.07643 9.15831 6.24136 8.72428 6.43233L7.52637 5.20837C8.13401 4.9306 8.91092 4.68754 9.8571 4.47921C10.8033 4.27087 11.7278 4.16671 12.6305 4.16671C15.1132 4.16671 17.3831 4.87417 19.4404 6.2891C21.4977 7.70403 23.0038 9.60073 23.9587 11.9792C23.5073 13.0903 22.9257 14.1059 22.2139 15.0261C21.5021 15.9462 20.6774 16.7535 19.7399 17.448ZM21.2503 23.3334L16.8753 19.0365C16.2677 19.2796 15.5819 19.4662 14.818 19.5964C14.0541 19.7266 13.2816 19.7917 12.5003 19.7917C9.9656 19.7917 7.66526 19.0842 5.59928 17.6693C3.53331 16.2544 2.01421 14.3577 1.04199 11.9792C1.38921 11.0764 1.87099 10.1954 2.4873 9.33598C3.10362 8.4766 3.85449 7.65629 4.73991 6.87504L1.45866 3.59379L2.55241 2.474L22.2659 22.1875L21.2503 23.3334ZM5.80762 7.96879C5.16526 8.43754 4.5446 9.05386 3.94564 9.81775C3.34668 10.5816 2.91699 11.3021 2.65658 11.9792C3.54199 13.9063 4.87446 15.4297 6.65397 16.5495C8.43349 17.6693 10.4517 18.2292 12.7087 18.2292C13.2816 18.2292 13.8458 18.1945 14.4014 18.125C14.9569 18.0556 15.3736 17.9514 15.6514 17.8125L13.9847 16.1459C13.7937 16.2327 13.5594 16.2978 13.2816 16.3412C13.0038 16.3846 12.7434 16.4063 12.5003 16.4063C11.285 16.4063 10.2434 15.9809 9.37533 15.1302C8.50727 14.2796 8.07324 13.2292 8.07324 11.9792C8.07324 11.7188 8.09494 11.4584 8.13835 11.198C8.18175 10.9375 8.24685 10.7032 8.33366 10.4948L5.80762 7.96879Z" fill="white"/>
</g>
</svg>
