<svg width="58" height="77" viewBox="0 0 58 77" fill="none" xmlns="http://www.w3.org/2000/svg">
<g style="mix-blend-mode:multiply" opacity="0.12">
<path d="M36.4337 22.9617C24.9092 7.19699 11.4399 -2.58364 5.42482 0.600129C-0.590222 3.7839 -0.0760327 20.4221 6.47985 38.8164C14.7501 37.7054 23.1447 40.281 29.3691 45.8377C28.274 37.5661 30.864 29.1763 36.4337 22.9617Z" fill="#816DDB"/>
<path d="M0 44.3623L10.2363 63.7016C16.4429 75.4276 30.7198 80.188 42.6438 74.7758L32.4074 55.4365C26.2005 43.7099 11.9232 38.9485 0 44.3623Z" fill="#816DDB"/>
<path d="M35.5974 53.7481L45.8337 73.0874C57.0138 66.2708 61.1055 51.7876 54.8989 40.0616L44.6626 20.7223C33.4825 27.5389 29.3908 42.0221 35.5974 53.7481Z" fill="#816DDB"/>
</g>
</svg>
