<svg width="18" height="16" viewBox="0 0 18 16" fill="none" xmlns="http://www.w3.org/2000/svg">
<path d="M15.1135 1.02291C14.147 -0.353344 12.7339 -0.152587 11.4346 0.526995C9.38081 1.59935 7.37164 2.75438 5.41777 3.99788C4.4403 4.61874 3.47675 5.26287 2.5278 5.92743C1.88542 6.37954 0.666149 6.9165 0.351935 7.67309C-0.63965 10.0694 0.650734 12.0273 1.89931 14.0516C2.59281 15.1755 3.49631 16.3221 4.98345 15.9167C6.23976 15.5739 7.2513 14.5292 8.30726 13.8152C9.54561 12.9776 10.8528 12.2472 12.19 11.5789C14.0615 10.6423 16.7556 10.084 17.7288 7.99765C18.3615 6.63989 17.7009 5.41861 17.0081 4.23592C16.3843 3.17246 15.8228 2.03288 15.1146 1.0247L15.1135 1.02291Z" fill="#76CDFF"/>
</svg>
