<svg width="25" height="25" viewBox="0 0 25 25" fill="none" xmlns="http://www.w3.org/2000/svg">
<path d="M16.38 14.0886L15.2342 12.9427C15.6856 11.7101 15.4512 10.6858 14.5311 9.86983C13.6109 9.05386 12.6127 8.84553 11.5363 9.24483L10.3905 8.099C10.6856 7.90803 11.0155 7.76914 11.38 7.68233C11.7446 7.59553 12.1179 7.55212 12.4998 7.55212C13.7325 7.55212 14.7785 7.98181 15.6379 8.84119C16.4972 9.70056 16.9269 10.7466 16.9269 11.9792C16.9269 12.3612 16.8792 12.7388 16.7837 13.112C16.6882 13.4853 16.5537 13.8108 16.38 14.0886ZM19.7394 17.448L18.6978 16.4063C19.5484 15.7813 20.2906 15.0825 20.9243 14.3099C21.558 13.5374 22.0224 12.7605 22.3175 11.9792C21.4495 10.0521 20.1474 8.52869 18.4113 7.40889C16.6752 6.2891 14.7915 5.72921 12.7603 5.72921C12.0311 5.72921 11.2846 5.79865 10.5207 5.93754C9.75678 6.07643 9.15782 6.24136 8.7238 6.43233L7.52588 5.20837C8.13352 4.9306 8.91043 4.68754 9.85661 4.47921C10.8028 4.27087 11.7273 4.16671 12.63 4.16671C15.1127 4.16671 17.3826 4.87417 19.4399 6.2891C21.4972 7.70403 23.0033 9.60073 23.9582 11.9792C23.5068 13.0903 22.9252 14.1059 22.2134 15.0261C21.5016 15.9462 20.6769 16.7535 19.7394 17.448ZM21.2498 23.3334L16.8748 19.0365C16.2672 19.2796 15.5814 19.4662 14.8175 19.5964C14.0537 19.7266 13.2811 19.7917 12.4998 19.7917C9.96511 19.7917 7.66477 19.0842 5.5988 17.6693C3.53282 16.2544 2.01373 14.3577 1.0415 11.9792C1.38873 11.0764 1.8705 10.1954 2.48682 9.33598C3.10314 8.4766 3.854 7.65629 4.73942 6.87504L1.45817 3.59379L2.55192 2.474L22.2655 22.1875L21.2498 23.3334ZM5.80713 7.96879C5.16477 8.43754 4.54411 9.05386 3.94515 9.81775C3.34619 10.5816 2.9165 11.3021 2.65609 11.9792C3.5415 13.9063 4.87397 15.4297 6.65348 16.5495C8.433 17.6693 10.4512 18.2292 12.7082 18.2292C13.2811 18.2292 13.8453 18.1945 14.4009 18.125C14.9564 18.0556 15.3731 17.9514 15.6509 17.8125L13.9842 16.1459C13.7932 16.2327 13.5589 16.2978 13.2811 16.3412C13.0033 16.3846 12.7429 16.4063 12.4998 16.4063C11.2846 16.4063 10.2429 15.9809 9.37484 15.1302C8.50678 14.2796 8.07275 13.2292 8.07275 11.9792C8.07275 11.7188 8.09446 11.4584 8.13786 11.198C8.18126 10.9375 8.24637 10.7032 8.33317 10.4948L5.80713 7.96879Z" fill="#AF6CDA"/>
</svg>
