<svg width="57" height="70" viewBox="0 0 57 70" fill="none" xmlns="http://www.w3.org/2000/svg">
<path d="M54.6793 35.1989C54.8409 34.3923 54.9864 33.5788 55.1284 32.7733C56.5737 24.4432 59.151 13.8046 53.5868 5.80718C51.266 2.47703 47.084 0.374224 42.9552 0.0487863C34.9212 -0.590231 26.3671 5.17884 20.5629 9.27925C11.359 15.7941 3.22596 24.9216 0.690381 35.8358C-1.84519 46.75 2.57448 61.0354 14.394 67.0646C20.0002 69.9229 26.716 70.5677 32.4297 68.7921C37.5583 67.1994 41.7356 63.7899 44.7635 59.7163C50.084 52.5542 52.9607 43.9149 54.6873 35.2024L54.6793 35.1989Z" fill="#E3B083"/>
</svg>
