<svg width="46" height="58" viewBox="0 0 46 58" fill="none" xmlns="http://www.w3.org/2000/svg">
<g style="mix-blend-mode:multiply" opacity="0.1">
<path fill-rule="evenodd" clip-rule="evenodd" d="M14.5198 0.259188C13.9782 0.363779 13.598 0.480227 13.2169 0.597505C12.8384 0.72277 12.4611 0.848223 11.959 1.07689C11.457 1.30553 10.8315 1.63756 10.0622 2.13513C9.29326 2.63257 8.38168 3.29407 7.72206 3.88889C7.06251 4.4837 6.65555 5.01163 6.30095 5.45669L5.25762 6.81017C4.86964 7.35849 4.39814 8.09115 3.93024 8.95603C3.46089 9.82139 2.99586 10.8193 2.60506 11.8046C2.21454 12.7909 1.89872 13.766 1.62143 14.7817C1.34509 15.7987 1.10677 16.8549 0.881403 17.9875C0.655237 19.1191 0.440075 20.3278 0.295273 21.6325C0.149446 22.9391 0.0757653 24.3407 0.0331766 25.4805C-0.00645237 26.6193 -0.0150201 27.4963 0.0319326 28.3821C0.0803402 29.269 0.183294 30.1633 0.310391 31.0498L0.787764 33.7737L1.48949 36.625C1.73816 37.4854 1.9848 38.1761 2.27317 38.9584C2.5625 39.7403 2.89431 40.616 3.38568 41.6646C3.87852 42.7128 4.52944 43.936 5.26064 45.1213C5.9914 46.3051 6.80084 47.4512 7.65325 48.4782C8.50255 49.5057 9.39433 50.4144 10.1062 51.0878C10.8184 51.7627 11.3497 52.2011 12.0818 52.7357C12.8155 53.2698 13.7485 53.9007 14.5713 54.3926C15.3961 54.8855 16.1106 55.2406 16.8175 55.5717L18.945 56.5085C19.6678 56.808 20.4145 57.1004 21.1658 57.3241C21.9167 57.5479 22.6719 57.7037 23.412 57.8124C24.1518 57.9202 24.8767 57.9808 25.6023 58L27.5653 57.9707C28.0781 57.9393 28.3775 57.8966 28.8673 57.7931L30.4687 57.4091C30.9022 57.2927 31.0899 57.2217 31.2761 57.1513C31.4686 57.1008 31.6622 57.05 32.0834 56.8935L33.611 56.2784C34.0702 56.0788 34.3389 55.9401 34.775 55.6685L36.3918 54.5548C36.9723 54.1192 37.5276 53.6491 38.0681 53.1326C38.6083 52.615 39.1335 52.0504 39.6156 51.4329C40.0977 50.8154 40.5369 50.1449 40.9527 49.4812L42.1436 47.4848C42.5278 46.8053 42.9041 46.1014 43.2908 45.2221C43.6763 44.3444 44.0712 43.29 44.3594 42.4291C44.6462 41.5691 44.8245 40.9036 45.0145 39.9412C45.2042 38.9799 45.4046 37.7231 45.5011 36.393C45.6007 35.0625 45.5961 33.6589 45.5055 32.2706C45.4144 30.8808 45.2366 29.5067 45.0303 28.367C44.823 27.2277 44.5859 26.3217 44.3685 25.5169C44.1502 24.7123 43.9508 24.006 43.6549 23.1611L42.5744 20.4308L41.3848 17.9343C40.9741 17.1383 40.5397 16.3498 40.0657 15.5989C39.5902 14.85 39.0755 14.1401 38.3832 13.235C37.6879 12.3308 36.8156 11.2313 35.9395 10.2509C35.0653 9.27155 34.1894 8.41077 33.3494 7.62006C32.5088 6.82737 31.703 6.10457 30.8885 5.4364C30.0743 4.7692 29.2518 4.15753 28.3616 3.5803C27.472 3.00386 26.5149 2.46065 25.6307 2.02681C24.7482 1.59312 23.9394 1.2693 23.3054 1.04731L21.6708 0.54894C21.124 0.392242 20.4862 0.197358 19.604 0.0948405C18.7218 -0.00767001 17.5955 -0.0184476 16.6806 0.0217864C15.7657 0.0620211 15.0635 0.153938 14.5215 0.258669L14.5198 0.259188Z" fill="#816DDB"/>
</g>
</svg>
