<svg width="84" height="66" viewBox="0 0 84 66" fill="none" xmlns="http://www.w3.org/2000/svg">
<path d="M80.0148 2.71256C70.6011 0.680175 56.7889 7.30313 52.1883 15.7259C51.9355 16.191 51.6827 16.6865 51.44 17.2022C49.9132 20.4884 48.6998 24.8262 49.1447 28.3247C43.5835 30.7211 38.9221 34.9982 36.0505 40.3067C34.8371 37.1014 33.3305 34.0073 31.5307 31.0851C31.4801 30.9941 31.4094 30.9334 31.3588 30.8525C31.5307 30.4683 31.6622 30.0841 31.7228 29.6897C33.2597 20.1749 25.9189 6.73689 17.2635 2.58111C16.7883 2.34855 16.2827 2.1261 15.7468 1.91376C12.0258 0.407168 7.00049 -0.654527 3.39073 0.467836C1.19656 1.15541 -0.0471393 3.57203 0.1652 5.78642C-1.71552 20.9535 12.7842 34.3309 27.2435 33.9264C27.2738 33.9264 27.3041 33.9163 27.3446 33.9163C32.6834 42.7739 35.1809 53.0369 34.5641 63.3606C34.372 66.6064 39.4277 66.5963 39.6198 63.3606C39.9333 58.2443 39.4985 53.1077 38.3963 48.1228C38.4873 47.9509 38.5682 47.779 38.6087 47.5768C38.8513 46.6162 39.1446 45.6758 39.5086 44.7557C39.5288 44.695 39.6805 44.3411 39.6906 44.3108C39.7513 44.1692 39.822 44.0277 39.8827 43.8861C40.0748 43.4816 40.277 43.0772 40.4995 42.6727C41.5005 40.8325 42.3701 39.6393 43.6239 38.2743C44.271 37.5766 44.9485 36.9194 45.6664 36.3026C45.8585 36.1408 46.0506 35.9891 46.2327 35.8273C46.3034 35.7667 46.3338 35.7363 46.354 35.7161C46.3843 35.6959 46.4248 35.6656 46.4955 35.615C46.8596 35.3521 47.2337 35.0892 47.6078 34.8364C48.3965 34.3106 49.2155 33.8354 50.0649 33.4107C50.2873 33.2995 50.5098 33.1984 50.7322 33.0872C50.7828 33.0669 51.0254 32.9557 51.1266 32.9153C51.4602 32.7737 51.804 32.6524 52.1478 32.531C52.8859 32.8344 53.6847 32.9961 54.4734 32.9658C69.5293 35.6453 83.6346 21.8635 83.9987 7.40424C84.0593 5.17974 82.0775 3.14735 79.9946 2.70245L80.0148 2.71256Z" fill="#B3CC57"/>
</svg>
