<svg width="172" height="166" viewBox="0 0 172 166" fill="none" xmlns="http://www.w3.org/2000/svg">
<g style="mix-blend-mode:multiply" opacity="0.06">
<path fill-rule="evenodd" clip-rule="evenodd" d="M68.5244 30.8156C73.4466 26.6275 75.2951 16.9186 91.6612 8.52826C110.55 -0.542467 132.88 4.38364 147.951 18.4157C173.967 42.99 184.164 114.716 149.768 132.42C138.386 138.035 126.205 138.307 116.605 145.823C108.36 151.861 101.159 162.38 88.7927 164.927C62.7065 171.497 25.6145 146.578 11.9643 125.966C-15.956 83.643 9.15495 41.448 44.5301 39.8346C49.3287 39.3328 56.1576 39.8706 60.0949 39.124C52.4706 20.2212 40.3524 15.3951 27.9271 10.018C27.8053 7.19263 29.036 2.88988 30.3281 -5.59493e-05C50.0743 4.19483 58.4999 15.4175 68.525 30.8142L68.5244 30.8156Z" fill="#816DDB"/>
</g>
</svg>
