<svg width="144" height="87" viewBox="0 0 144 87" fill="none" xmlns="http://www.w3.org/2000/svg">
<path d="M141.463 23.9047C138.505 22.1796 135.094 21.1848 131.662 21.0457C133.852 19.1258 136.015 17.0737 136.713 14.152C137.996 8.80963 132.548 5.59583 127.971 7.43924C123.535 9.227 119.481 11.766 115.986 14.8894C116.175 11.6687 116.237 8.4479 115.854 5.22715C115.596 3.09157 114.738 1.26208 112.603 0.406455C110.747 -0.337866 108.222 -0.108309 106.82 1.49859C106.792 1.53337 106.771 1.5612 106.743 1.59598C106.338 1.95075 105.976 2.36117 105.676 2.83419C105.25 3.50199 104.873 4.19067 104.525 4.89325C104.043 5.82539 103.652 6.78535 103.339 7.77314C101.964 11.773 101.546 16.0789 101.378 20.3223C101.253 23.55 101.183 26.7846 101.085 30.0123C100.988 33.3027 100.534 37.1564 103.394 39.3059C104.671 40.4259 106.401 41.0937 108.313 40.9893C111.947 40.8015 115.77 39.3755 119.307 38.5338C126.276 36.8712 133.238 35.2087 140.208 33.5461C144.686 32.4749 145.314 26.1377 141.47 23.8978L141.463 23.9047Z" fill="#B3CC57"/>
<path d="M80.3557 36.0331C69.3814 36.5767 59.2445 41.1447 51.135 46.4685C48.1556 48.4243 45.5288 50.6718 42.2497 52.3558C38.9706 54.0398 34.9864 55.3922 31.0991 56.453C22.4519 58.8132 12.1915 59.5624 5.43065 64.7204C0.926333 68.1547 -1.48009 73.273 0.988036 77.9271C4.78718 85.1072 16.2904 85.9559 25.1315 86.5327C49.9185 88.1503 79.4566 86.3271 93.8951 68.7514C94.0891 68.5127 94.283 68.274 94.4681 68.0287C98.2849 63.1293 100.771 57.2884 100.991 51.5801C101.326 42.8287 92.2732 35.443 80.3646 36.0331H80.3557Z" fill="#ED7F62"/>
</svg>
