<svg width="72" height="77" viewBox="0 0 72 77" fill="none" xmlns="http://www.w3.org/2000/svg">
<g style="mix-blend-mode:multiply" opacity="0.12">
<path d="M0.528052 34.0646C4.56765 39.668 10.0057 43.4172 16.5194 44.3765C22.408 45.244 28.9685 43.8972 36.1007 40.2831L40.8555 46.8785L26.4462 57.2665C25.3813 58.2179 25.1931 59.999 26.0348 61.1538C30.0308 66.6967 35.9654 71.8799 42.6634 74.785C49.3611 77.6898 57.1915 78.1867 63.6547 73.5272C70.4481 68.6297 72.5177 60.9647 71.7655 53.7302C71.0134 46.4957 67.7559 39.4086 63.8034 33.926C62.9115 32.6889 60.9758 32.3746 59.7393 33.2652L45.576 43.4758L40.8212 36.8804C46.5044 31.2555 49.8559 25.4564 50.893 19.5962C52.0414 13.113 50.2022 6.76816 46.1632 1.16563C45.2371 -0.123617 43.1781 -0.39492 41.9519 0.611765C36.0533 5.4928 32.5129 10.4337 31.452 16.3721C30.7212 20.463 31.1095 24.8408 32.232 29.9465C27.7423 27.2674 23.7121 25.516 19.5997 24.9167C13.6315 24.0465 7.82451 25.8435 1.32888 29.8978C0.0385885 30.8964 -0.471974 32.713 0.523476 34.0683L0.528052 34.0646Z" fill="#816DDB"/>
</g>
</svg>
