<svg width="77" height="30" viewBox="0 0 77 30" fill="none" xmlns="http://www.w3.org/2000/svg">
<path d="M71.1365 8.64703C67.5815 6.09622 63.0021 5.03172 58.6938 6.04601C57.8804 6.23682 57.1071 6.55818 56.364 6.94983C55.9823 6.21673 55.4401 5.5238 54.6869 4.89112C54.1948 4.47937 53.6927 4.1078 53.2006 3.74627C53.1504 3.71614 53.1001 3.68601 53.0499 3.65588C44.4334 -2.30938 34.2001 -0.491687 26.3468 5.62422C21.908 3.92703 16.7361 3.94712 12.6689 6.41758C10.8914 7.50218 9.37493 9.55085 8.81255 11.5794C8.75229 11.8104 8.62174 12.3126 8.51127 12.8549C6.26174 13.9696 2.60626 16.4902 2.07401 17.1129C-0.486842 20.1256 -0.888544 24.5243 2.07401 27.4768C4.80558 30.2084 9.37493 29.646 12.9199 29.7665C17.5998 29.9272 22.2796 29.6359 26.9494 29.2945C38.9904 28.4208 50.7502 28.8426 62.7711 29.8167C65.0206 29.9975 67.3103 30.1782 69.5096 29.656C79.271 27.3663 77.845 13.4474 71.1265 8.62694L71.1365 8.64703Z" fill="#978061"/>
</svg>
