<svg width="61" height="61" viewBox="0 0 61 61" fill="none" xmlns="http://www.w3.org/2000/svg">
<g style="mix-blend-mode:multiply" opacity="0.15">
<path d="M58.4413 42.1032C63.3845 30.8102 53.8741 23.0612 46.2665 18.9046L44.5468 18.0927C48.0026 16.3925 53.1626 16.0328 58.7945 17.4372C59.4714 17.6027 60.1336 17.7982 60.7845 18.0025C59.2811 16.2506 57.2929 14.7027 54.9082 13.5768C51.5646 11.9982 48.0727 11.5238 45.0652 12.0266C45.1445 7.6828 44.5036 3.09482 44.5036 3.09482C44.5036 3.09482 40.5538 5.51544 37.242 8.34009C35.7191 5.69846 33.1343 3.30387 29.7902 1.72505C27.4051 0.598957 24.947 0.0475549 22.6388 6.82826e-05C23.2102 0.372729 23.7823 0.760051 24.3399 1.17736C29.0062 4.64271 32.011 8.86431 32.8935 12.6128L29.9211 11.2095C21.8781 8.03611 10.0605 5.79513 4.55033 16.6595C-4.22797 33.9794 -0.693191 47.7117 18.5546 56.7991C37.8024 65.8865 50.6527 59.8897 58.4417 42.1031L58.4413 42.1032Z" fill="#816DDB"/>
</g>
</svg>
