<svg width="55" height="69" viewBox="0 0 55 69" fill="none" xmlns="http://www.w3.org/2000/svg">
<g style="mix-blend-mode:multiply" opacity="0.12">
<path d="M26.1083 19.4896C26.6601 13.4121 28.7538 7.56308 32.1983 2.48099L26.1081 0.000114845C23.7815 4.79238 22.7223 10.0825 23.0301 15.3747C20.8839 11.38 17.4781 8.18975 13.3239 6.28348C9.16971 4.37725 4.49369 3.85781 -0.000311751 4.80486C0.980175 9.3843 3.49343 13.4953 7.13611 16.4784C10.7797 19.4612 15.3401 21.1425 20.0837 21.2506C12.2283 24.6491 6.65723 31.7684 5.31731 40.1214C3.97739 48.4743 7.05535 56.8987 13.4752 62.45C19.8953 68.002 28.7649 69.9077 36.9827 67.5018C45.2007 65.097 51.6251 58.7142 54.0093 50.5858C56.394 42.4585 54.4082 33.7135 48.7453 27.411C43.083 21.1073 34.5308 18.1215 26.0789 19.4964L26.1083 19.4896Z" fill="#816DDB"/>
</g>
</svg>
