<svg width="95" height="112" viewBox="0 0 95 112" fill="none" xmlns="http://www.w3.org/2000/svg">
<g clip-path="url(#clip0_54_4639)">
<path d="M10.418 62.0328C9.86103 63.8988 9.32039 65.7573 8.79168 67.6201C5.54235 79.1202 8.54797 88.6633 19.349 94.5787C29.0254 99.8688 39.8557 104.105 50.6829 106.379C55.6948 107.431 61.5936 106.9 64.9383 103.019C68.017 99.4606 68.7575 93.4836 70.1189 89.0709C70.387 88.222 70.6476 87.3568 70.9038 86.5036C49.18 83.6329 29.4288 73.8136 10.418 62.0328Z" fill="#929292"/>
<path d="M50.7019 33.0129C50.9168 33.0911 51.8493 33.5384 52.544 33.8586C53.9693 34.5121 55.3783 35.1733 56.8167 35.791C59.892 37.1122 63.0194 38.2901 66.2076 39.3008C67.6145 39.7448 69.0973 40.0542 70.4824 40.558C70.6377 40.6144 70.7571 40.6578 70.8765 40.7013C70.9242 40.7186 70.9525 40.7154 70.9926 40.7165C74.2872 41.2116 77.545 41.7338 80.8928 41.8967C81.8079 41.9456 82.7241 41.9543 83.6446 41.9511C84.0865 40.1784 84.5359 38.422 84.9659 36.645C87.4498 26.2455 76.4752 18.4282 68.3652 13.9241C60.0056 9.28863 50.9175 6.61904 41.3332 6.39191C34.4042 6.22456 30.3745 12.3979 27.3642 18.631C32.6995 22.1397 38.0511 25.6407 43.5493 28.9246C45.9071 30.3228 48.2725 31.7373 50.7019 33.0129Z" fill="#929292"/>
<path d="M83.6446 41.951C82.7284 41.9423 81.8122 41.9336 80.8927 41.8967C77.5569 41.7381 74.2992 41.2159 70.9926 40.7164C70.9448 40.6991 70.9166 40.7023 70.8765 40.7012C70.757 40.6578 70.6376 40.6144 70.4824 40.5579C69.0973 40.0542 67.6101 39.7567 66.2076 39.3008C63.0237 38.2781 59.8963 37.1002 56.8166 35.791C55.3783 35.1733 53.9693 34.5121 52.544 33.8586C51.8492 33.5383 50.9124 33.103 50.7018 33.0129C48.2724 31.7373 45.9071 30.3228 43.5493 28.9246C38.0587 25.6569 32.7071 22.1559 27.3641 18.631C26.0701 21.2971 24.9725 23.9805 23.9043 26.1744C18.3732 37.6289 14.0643 49.8118 10.4177 62.0328C29.4285 73.8136 49.1797 83.6328 70.9035 86.5036C72.4277 81.5687 73.94 76.6295 75.4121 71.6893C78.3477 61.8326 81.1356 51.9358 83.6402 41.963L83.6446 41.951Z" fill="#9BDBFF"/>
</g>
<defs>
<clipPath id="clip0_54_4639">
<rect width="66.2085" height="94.1488" fill="white" transform="translate(32.3821) scale(1.00637) rotate(19.9846)"/>
</clipPath>
</defs>
</svg>
