<svg width="21" height="18" viewBox="0 0 21 18" fill="none" xmlns="http://www.w3.org/2000/svg">
<path d="M3.675 1.36286C3.85233 0.957978 4.1471 0.613006 4.52274 0.370735C4.89839 0.128464 5.33838 -0.000444649 5.78813 1.15238e-06H15.2119C16.1306 1.15238e-06 16.9614 0.536144 17.325 1.36286L20.9212 9.585C20.9737 9.70457 21 9.83443 21 9.96429V15.75C21 16.3467 20.758 16.919 20.3273 17.341C19.8965 17.7629 19.3123 18 18.7031 18H2.29688C1.68771 18 1.10349 17.7629 0.672739 17.341C0.241991 16.919 0 16.3467 0 15.75L0 9.96429C0 9.83443 0.02625 9.70457 0.07875 9.585L3.675 1.36286ZM5.78813 1.92857C5.72379 1.92857 5.66087 1.94709 5.6072 1.98184C5.55353 2.01659 5.51147 2.06602 5.48625 2.124L2.47669 9H6.23438C6.38719 9 6.53791 9.03485 6.6746 9.1018C6.81129 9.16875 6.93018 9.26595 7.02187 9.38571L8.69531 11.5714H12.3047L13.9781 9.38571C14.0698 9.26595 14.1887 9.16875 14.3254 9.1018C14.4621 9.03485 14.6128 9 14.7656 9H18.5233L15.5138 2.124C15.4885 2.06602 15.4465 2.01659 15.3928 1.98184C15.3391 1.94709 15.2762 1.92857 15.2119 1.92857H5.78813ZM19.0312 10.9286H15.2578L13.5844 13.1143C13.4927 13.234 13.3738 13.3312 13.2371 13.3982C13.1004 13.4651 12.9497 13.5 12.7969 13.5H8.20312C8.05031 13.5 7.89959 13.4651 7.7629 13.3982C7.62621 13.3312 7.50732 13.234 7.41563 13.1143L5.74219 10.9286H1.96875V15.75C1.96875 15.9274 2.11575 16.0714 2.29688 16.0714H18.7031C18.7901 16.0714 18.8736 16.0376 18.9351 15.9773C18.9967 15.917 19.0312 15.8352 19.0312 15.75V10.9286Z" fill="#808089"/>
</svg>
