<svg width="45" height="45" viewBox="0 0 45 45" fill="none" xmlns="http://www.w3.org/2000/svg">
<g id="Group 1000004157">
<path id="Vector" d="M39.3797 16.305V28.8881C39.3797 30.9486 38.2759 32.8619 36.4914 33.9105L25.5639 40.2205C23.7794 41.2507 21.5718 41.2507 19.7689 40.2205L8.84138 33.9105C7.05692 32.8803 5.95312 30.9669 5.95312 28.8881V16.305C5.95312 14.2445 7.05692 12.3312 8.84138 11.2826L19.7689 4.97261C21.5534 3.9424 23.761 3.9424 25.5639 4.97261L36.4914 11.2826C38.2759 12.3312 39.3797 14.2261 39.3797 16.305Z" stroke="#415EB6" stroke-width="1.5" stroke-linecap="round" stroke-linejoin="round"/>
<g id="Group">
<path id="Vector_2" d="M22.6809 22.3727C25.0482 22.3727 26.9673 20.4536 26.9673 18.0862C26.9673 15.7189 25.0482 13.7999 22.6809 13.7999C20.3136 13.7999 18.3945 15.7189 18.3945 18.0862C18.3945 20.4536 20.3136 22.3727 22.6809 22.3727Z" stroke="#415EB6" stroke-width="1.5" stroke-linecap="round" stroke-linejoin="round"/>
<path id="Vector_3" d="M30.0376 32.7851C30.0376 29.4738 26.7446 26.788 22.6789 26.788C18.6133 26.788 15.3203 29.4738 15.3203 32.7851" stroke="#415EB6" stroke-width="1.5" stroke-linecap="round" stroke-linejoin="round"/>
</g>
</g>
</svg>
